  0
SECTION
  2
HEADER
  9
$ACADVER
  1
AC1014
  9
$HANDSEED
  5
FFFF
  9
$MEASUREMENT
 70
     1
  0
ENDSEC
  0
SECTION
  2
TABLES
  0
TABLE
  2
VPORT
  5
8
330
0
100
AcDbSymbolTable
 70
     4
  0
VPORT
  5
2E
330
8
100
AcDbSymbolTableRecord
100
AcDbViewportTableRecord
  2
*ACTIVE
 70
     0
 10
0.0
 20
0.0
 11
1.0
 21
1.0
 12
210.0
 22
148.5
 13
0.0
 23
0.0
 14
10.0
 24
10.0
 15
10.0
 25
10.0
 16
0.0
 26
0.0
 36
1.0
 17
0.0
 27
0.0
 37
0.0
 40
341.0
 41
1.24
 42
50.0
 43
0.0
 44
0.0
 50
0.0
 51
0.0
 71
     0
 72
   100
 73
     1
 74
     3
 75
     0
 76
     0
 77
     0
 78
     0
  0
ENDTAB
  0
TABLE
  2
LTYPE
  5
5
330
0
100
AcDbSymbolTable
 70
     1
  0
LTYPE
  5
14
330
5
100
AcDbSymbolTableRecord
100
AcDbLinetypeTableRecord
  2
BYBLOCK
 70
     0
  3

 72
    65
 73
     0
 40
0.0
  0
LTYPE
  5
15
330
5
100
AcDbSymbolTableRecord
100
AcDbLinetypeTableRecord
  2
BYLAYER
 70
     0
  3

 72
    65
 73
     0
 40
0.0
  0
LTYPE
  5
16
330
5
100
AcDbSymbolTableRecord
100
AcDbLinetypeTableRecord
  2
CONTINUOUS
 70
     0
  3
Solid line
 72
    65
 73
     0
 40
0.0
  0
ENDTAB
  0
TABLE
  2
LAYER
  5
2
100
AcDbSymbolTable
 70
2
  0
LAYER
  5
50
100
AcDbSymbolTableRecord
100
AcDbLayerTableRecord
  2
0
 70
0
  6
CONTINUOUS
  0
LAYER
  5
51
100
AcDbSymbolTableRecord
100
AcDbLayerTableRecord
  2
Layer_1
 70
0
  6
CONTINUOUS
  0
ENDTAB
  0
TABLE
  2
STYLE
  5
3
330
0
100
AcDbSymbolTable
 70
     1
  0
STYLE
  5
11
330
3
100
AcDbSymbolTableRecord
100
AcDbTextStyleTableRecord
  2
STANDARD
 70
     0
 40
0.0
 41
1.0
 50
0.0
 71
     0
 42
2.5
  3
txt
  4

  0
ENDTAB
  0
TABLE
  2
VIEW
  5
6
330
0
100
AcDbSymbolTable
 70
     0
  0
ENDTAB
  0
TABLE
  2
UCS
  5
7
330
0
100
AcDbSymbolTable
 70
     0
  0
ENDTAB
  0
TABLE
  2
APPID
  5
9
330
0
100
AcDbSymbolTable
 70
     2
  0
APPID
  5
12
330
9
100
AcDbSymbolTableRecord
100
AcDbRegAppTableRecord
  2
ACAD
 70
     0
  0
ENDTAB
  0
TABLE
  2
DIMSTYLE
  5
A
330
0
100
AcDbSymbolTable
 70
     1
  0
DIMSTYLE
105
27
330
A
100
AcDbSymbolTableRecord
100
AcDbDimStyleTableRecord
  2
ISO-25
 70
     0
  3

  4

  5

  6

  7

 40
1.0
 41
2.5
 42
0.625
 43
3.75
 44
1.25
 45
0.0
 46
0.0
 47
0.0
 48
0.0
140
2.5
141
2.5
142
0.0
143
0.03937007874016
144
1.0
145
0.0
146
1.0
147
0.625
 71
     0
 72
     0
 73
     0
 74
     0
 75
     0
 76
     0
 77
     1
 78
     8
170
     0
171
     3
172
     1
173
     0
174
     0
175
     0
176
     0
177
     0
178
     0
270
     2
271
     2
272
     2
273
     2
274
     3
340
11
275
     0
280
     0
281
     0
282
     0
283
     0
284
     8
285
     0
286
     0
287
     3
288
     0
  0
ENDTAB
  0
TABLE
  2
BLOCK_RECORD
  5
1
330
0
100
AcDbSymbolTable
 70
     1
  0
BLOCK_RECORD
  5
1F
330
1
100
AcDbSymbolTableRecord
100
AcDbBlockTableRecord
  2
*MODEL_SPACE
  0
BLOCK_RECORD
  5
1B
330
1
100
AcDbSymbolTableRecord
100
AcDbBlockTableRecord
  2
*PAPER_SPACE
  0
ENDTAB
  0
ENDSEC
  0
SECTION
  2
BLOCKS
  0
BLOCK
  5
20
330
1F
100
AcDbEntity
  8
0
100
AcDbBlockBegin
  2
*MODEL_SPACE
 70
     0
 10
0.0
 20
0.0
 30
0.0
  3
*MODEL_SPACE
  1

  0
ENDBLK
  5
21
330
1F
100
AcDbEntity
  8
0
100
AcDbBlockEnd
  0
BLOCK
  5
1C
330
1B
100
AcDbEntity
 67
     1
  8
0
100
AcDbBlockBegin
  2
*PAPER_SPACE
  1

  0
ENDBLK
  5
1D
330
1B
100
AcDbEntity
 67
     1
  8
0
100
AcDbBlockEnd
  0
ENDSEC
  0
SECTION
  2
ENTITIES
  0
SPLINE
  5
100
100
AcDbEntity
  8
Layer_1
 62
7
100
AcDbSpline
 70
8
 71
3
 72
8
 73
4
 74
0
 40
0
 40
0
 40
0
 40
0
 40
1
 40
1
 40
1
 40
1
 10
40.501661
 20
16.945852
 30
0.0
 10
40.501661
 20
16.578027
 30
0.0
 10
40.382812
 20
16.301290
 30
0.0
 10
40.145114
 20
16.115642
 30
0.0
  0
SPLINE
  5
101
100
AcDbEntity
  8
Layer_1
 62
7
100
AcDbSpline
 70
8
 71
3
 72
8
 73
4
 74
0
 40
0
 40
0
 40
0
 40
0
 40
1
 40
1
 40
1
 40
1
 10
40.145114
 20
16.115642
 30
0.0
 10
39.909150
 20
15.929995
 30
0.0
 10
39.658439
 20
15.837171
 30
0.0
 10
39.392980
 20
15.837171
 30
0.0
  0
LWPOLYLINE
  5
102
100
AcDbEntity
  8
Layer_1
 62
7
100
AcDbPolyline
 90
3
 70
0
 10
38.836036
 20
18.611477
 30
0.0
 10
40.501661
 20
18.611477
 30
0.0
 10
40.501661
 20
16.945852
 30
0.0
  0
SPLINE
  5
103
100
AcDbEntity
  8
Layer_1
 62
7
100
AcDbSpline
 70
8
 71
3
 72
8
 73
4
 74
0
 40
0
 40
0
 40
0
 40
0
 40
1
 40
1
 40
1
 40
1
 10
38.279093
 20
15.837171
 30
0.0
 10
37.975464
 20
15.837171
 30
0.0
 10
37.714342
 20
15.945610
 30
0.0
 10
37.495729
 20
16.162488
 30
0.0
  0
SPLINE
  5
104
100
AcDbEntity
  8
Layer_1
 62
7
100
AcDbSpline
 70
8
 71
3
 72
8
 73
4
 74
0
 40
0
 40
0
 40
0
 40
0
 40
1
 40
1
 40
1
 40
1
 10
37.495729
 20
16.162488
 30
0.0
 10
37.278851
 20
16.381101
 30
0.0
 10
37.170412
 20
16.642223
 30
0.0
 10
37.170412
 20
16.945852
 30
0.0
  0
LWPOLYLINE
  5
105
100
AcDbEntity
  8
Layer_1
 62
7
100
AcDbPolyline
 90
2
 70
0
 10
39.392980
 20
15.837171
 30
0.0
 10
38.279093
 20
15.837171
 30
0.0
  0
SPLINE
  5
106
100
AcDbEntity
  8
Layer_1
 62
7
100
AcDbSpline
 70
8
 71
3
 72
8
 73
4
 74
0
 40
0
 40
0
 40
0
 40
0
 40
1
 40
1
 40
1
 40
1
 10
37.170412
 20
19.725364
 30
0.0
 10
37.170412
 20
20.023788
 30
0.0
 10
37.277116
 20
20.283175
 30
0.0
 10
37.490524
 20
20.503523
 30
0.0
  0
SPLINE
  5
107
100
AcDbEntity
  8
Layer_1
 62
7
100
AcDbSpline
 70
8
 71
3
 72
8
 73
4
 74
0
 40
0
 40
0
 40
0
 40
0
 40
1
 40
1
 40
1
 40
1
 10
37.490524
 20
20.503523
 30
0.0
 10
37.705667
 20
20.723871
 30
0.0
 10
37.968524
 20
20.834046
 30
0.0
 10
38.279093
 20
20.834046
 30
0.0
  0
LWPOLYLINE
  5
108
100
AcDbEntity
  8
Layer_1
 62
7
100
AcDbPolyline
 90
2
 70
0
 10
37.170412
 20
16.945852
 30
0.0
 10
37.170412
 20
19.725364
 30
0.0
  0
SPLINE
  5
109
100
AcDbEntity
  8
Layer_1
 62
7
100
AcDbSpline
 70
8
 71
3
 72
8
 73
4
 74
0
 40
0
 40
0
 40
0
 40
0
 40
1
 40
1
 40
1
 40
1
 10
39.392980
 20
20.834046
 30
0.0
 10
40.090461
 20
20.834046
 30
0.0
 10
40.460021
 20
20.464485
 30
0.0
 10
40.501661
 20
19.725364
 30
0.0
  0
LWPOLYLINE
  5
10a
100
AcDbEntity
  8
Layer_1
 62
7
100
AcDbPolyline
 90
2
 70
0
 10
38.279093
 20
20.834046
 30
0.0
 10
39.392980
 20
20.834046
 30
0.0
  0
SPLINE
  5
10b
100
AcDbEntity
  8
Layer_1
 62
7
100
AcDbSpline
 70
8
 71
3
 72
8
 73
4
 74
0
 40
0
 40
0
 40
0
 40
0
 40
1
 40
1
 40
1
 40
1
 10
39.944718
 20
19.725364
 30
0.0
 10
39.901343
 20
20.093189
 30
0.0
 10
39.717430
 20
20.277102
 30
0.0
 10
39.392980
 20
20.277102
 30
0.0
  0
LWPOLYLINE
  5
10c
100
AcDbEntity
  8
Layer_1
 62
7
100
AcDbPolyline
 90
2
 70
0
 10
40.501661
 20
19.725364
 30
0.0
 10
39.944718
 20
19.725364
 30
0.0
  0
SPLINE
  5
10d
100
AcDbEntity
  8
Layer_1
 62
7
100
AcDbSpline
 70
8
 71
3
 72
8
 73
4
 74
0
 40
0
 40
0
 40
0
 40
0
 40
1
 40
1
 40
1
 40
1
 10
38.836036
 20
20.277102
 30
0.0
 10
38.683354
 20
20.277102
 30
0.0
 10
38.552360
 20
20.222449
 30
0.0
 10
38.443053
 20
20.113142
 30
0.0
  0
SPLINE
  5
10e
100
AcDbEntity
  8
Layer_1
 62
7
100
AcDbSpline
 70
8
 71
3
 72
8
 73
4
 74
0
 40
0
 40
0
 40
0
 40
0
 40
1
 40
1
 40
1
 40
1
 10
38.443053
 20
20.113142
 30
0.0
 10
38.333746
 20
20.005571
 30
0.0
 10
38.279093
 20
19.876311
 30
0.0
 10
38.279093
 20
19.725364
 30
0.0
  0
LWPOLYLINE
  5
10f
100
AcDbEntity
  8
Layer_1
 62
7
100
AcDbPolyline
 90
2
 70
0
 10
39.392980
 20
20.277102
 30
0.0
 10
38.836036
 20
20.277102
 30
0.0
  0
SPLINE
  5
110
100
AcDbEntity
  8
Layer_1
 62
7
100
AcDbSpline
 70
8
 71
3
 72
8
 73
4
 74
0
 40
0
 40
0
 40
0
 40
0
 40
1
 40
1
 40
1
 40
1
 10
38.279093
 20
16.945852
 30
0.0
 10
38.279093
 20
16.793170
 30
0.0
 10
38.333746
 20
16.663043
 30
0.0
 10
38.443053
 20
16.555471
 30
0.0
  0
SPLINE
  5
111
100
AcDbEntity
  8
Layer_1
 62
7
100
AcDbSpline
 70
8
 71
3
 72
8
 73
4
 74
0
 40
0
 40
0
 40
0
 40
0
 40
1
 40
1
 40
1
 40
1
 10
38.443053
 20
16.555471
 30
0.0
 10
38.552360
 20
16.447900
 30
0.0
 10
38.683354
 20
16.394114
 30
0.0
 10
38.836036
 20
16.394114
 30
0.0
  0
SPLINE
  5
112
100
AcDbEntity
  8
Layer_1
 62
7
100
AcDbSpline
 70
8
 71
3
 72
8
 73
4
 74
0
 40
0
 40
0
 40
0
 40
0
 40
1
 40
1
 40
1
 40
1
 10
38.836036
 20
16.394114
 30
0.0
 10
39.189981
 20
16.411467
 30
0.0
 10
39.375629
 20
16.595380
 30
0.0
 10
39.392980
 20
16.945852
 30
0.0
  0
LWPOLYLINE
  5
113
100
AcDbEntity
  8
Layer_1
 62
7
100
AcDbPolyline
 90
2
 70
0
 10
38.279093
 20
19.725364
 30
0.0
 10
38.279093
 20
16.945852
 30
0.0
  0
LWPOLYLINE
  5
114
100
AcDbEntity
  8
Layer_1
 62
7
100
AcDbPolyline
 90
4
 70
0
 10
39.392980
 20
16.945852
 30
0.0
 10
39.392980
 20
18.059739
 30
0.0
 10
38.836036
 20
18.059739
 30
0.0
 10
38.836036
 20
18.611477
 30
0.0
  0
LWPOLYLINE
  5
115
100
AcDbEntity
  8
Layer_1
 62
7
100
AcDbPolyline
 90
4
 70
1
 10
41.607740
 20
15.837171
 30
0.0
 10
41.607740
 20
16.945852
 30
0.0
 10
42.716422
 20
16.945852
 30
0.0
 10
42.716422
 20
15.837171
 30
0.0
  0
LWPOLYLINE
  5
116
100
AcDbEntity
  8
Layer_1
 62
7
100
AcDbPolyline
 90
12
 70
1
 10
43.832911
 20
15.837171
 30
0.0
 10
43.832911
 20
20.834046
 30
0.0
 10
46.607218
 20
20.834046
 30
0.0
 10
46.607218
 20
20.277102
 30
0.0
 10
44.941593
 20
20.277102
 30
0.0
 10
44.941593
 20
18.611477
 30
0.0
 10
46.055479
 20
18.611477
 30
0.0
 10
46.055479
 20
18.059739
 30
0.0
 10
44.941593
 20
18.059739
 30
0.0
 10
44.941593
 20
16.394114
 30
0.0
 10
46.607218
 20
16.394114
 30
0.0
 10
46.607218
 20
15.837171
 30
0.0
  0
LWPOLYLINE
  5
117
100
AcDbEntity
  8
Layer_1
 62
7
100
AcDbPolyline
 90
4
 70
1
 10
47.723707
 20
15.837171
 30
0.0
 10
47.723707
 20
16.945852
 30
0.0
 10
48.832388
 20
16.945852
 30
0.0
 10
48.832388
 20
15.837171
 30
0.0
  0
LWPOLYLINE
  5
118
100
AcDbEntity
  8
Layer_1
 62
7
100
AcDbPolyline
 90
12
 70
1
 10
49.948878
 20
15.837171
 30
0.0
 10
49.948878
 20
20.834046
 30
0.0
 10
52.723184
 20
20.834046
 30
0.0
 10
52.723184
 20
20.277102
 30
0.0
 10
51.057559
 20
20.277102
 30
0.0
 10
51.057559
 20
18.611477
 30
0.0
 10
52.171446
 20
18.611477
 30
0.0
 10
52.171446
 20
18.059739
 30
0.0
 10
51.057559
 20
18.059739
 30
0.0
 10
51.057559
 20
16.394114
 30
0.0
 10
52.723184
 20
16.394114
 30
0.0
 10
52.723184
 20
15.837171
 30
0.0
  0
LWPOLYLINE
  5
119
100
AcDbEntity
  8
Layer_1
 62
7
100
AcDbPolyline
 90
4
 70
1
 10
53.839673
 20
15.837171
 30
0.0
 10
53.839673
 20
16.945852
 30
0.0
 10
54.948355
 20
16.945852
 30
0.0
 10
54.948355
 20
15.837171
 30
0.0
  0
LWPOLYLINE
  5
11a
100
AcDbEntity
  8
Layer_1
 62
7
100
AcDbPolyline
 90
11
 70
1
 10
56.064845
 20
15.837171
 30
0.0
 10
56.064845
 20
20.834046
 30
0.0
 10
57.173527
 20
20.834046
 30
0.0
 10
57.173527
 20
18.793655
 30
0.0
 10
58.969279
 20
20.834046
 30
0.0
 10
59.953039
 20
20.834046
 30
0.0
 10
57.730470
 20
18.335608
 30
0.0
 10
59.953039
 20
15.837171
 30
0.0
 10
58.839152
 20
15.837171
 30
0.0
 10
57.173527
 20
17.778665
 30
0.0
 10
57.173527
 20
15.837171
 30
0.0
  0
LWPOLYLINE
  5
11b
100
AcDbEntity
  8
Layer_1
 62
7
100
AcDbPolyline
 90
4
 70
1
 10
61.061719
 20
15.837171
 30
0.0
 10
61.061719
 20
16.945852
 30
0.0
 10
62.170401
 20
16.945852
 30
0.0
 10
62.170401
 20
15.837171
 30
0.0
  0
ENDSEC
  0
SECTION
  2
OBJECTS
  0
DICTIONARY
  5
C
330
0
100
AcDbDictionary
  3
ACAD_GROUP
350
D
  3
ACAD_MLINESTYLE
350
17
  0
DICTIONARY
  5
D
330
C
100
AcDbDictionary
  0
DICTIONARY
  5
1A
330
C
100
AcDbDictionary
  0
DICTIONARY
  5
17
330
C
100
AcDbDictionary
  3
STANDARD
350
18
  0
DICTIONARY
  5
19
330
C
100
AcDbDictionary
  0
ENDSEC
  0
EOF
