G04 #@! TF.GenerationSoftware,KiCad,Pcbnew,(5.1.2-1)-1*
G04 #@! TF.CreationDate,2020-06-06T23:17:58+08:00*
G04 #@! TF.ProjectId,vim60,76696d36-302e-46b6-9963-61645f706362,rev?*
G04 #@! TF.SameCoordinates,Original*
G04 #@! TF.FileFunction,Legend,Top*
G04 #@! TF.FilePolarity,Positive*
%FSLAX46Y46*%
G04 Gerber Fmt 4.6, Leading zero omitted, Abs format (unit mm)*
G04 Created by KiCad (PCBNEW (5.1.2-1)-1) date 2020-06-06 23:17:58*
%MOMM*%
%LPD*%
G04 APERTURE LIST*
%ADD10C,0.381000*%
G04 APERTURE END LIST*
D10*
X349790000Y-161856500D02*
X349790000Y-177096500D01*
X334550000Y-161856500D02*
X349790000Y-161856500D01*
X334550000Y-177096500D02*
X334550000Y-161856500D01*
X349790000Y-177096500D02*
X334550000Y-177096500D01*
X83091700Y-119946400D02*
X67851700Y-119946400D01*
X67851700Y-119946400D02*
X67851700Y-104706400D01*
X67851700Y-104706400D02*
X83091700Y-104706400D01*
X83091700Y-104706400D02*
X83091700Y-119946400D01*
X87854199Y-123756400D02*
X87854199Y-138996400D01*
X72614199Y-123756400D02*
X87854199Y-123756400D01*
X72614199Y-138996400D02*
X72614199Y-123756400D01*
X87854199Y-138996400D02*
X72614199Y-138996400D01*
X90235499Y-158047800D02*
X74995499Y-158047800D01*
X74995499Y-158047800D02*
X74995499Y-142807800D01*
X74995499Y-142807800D02*
X90235499Y-142807800D01*
X90235499Y-142807800D02*
X90235499Y-158047800D01*
X83091700Y-177096500D02*
X67851700Y-177096500D01*
X67851700Y-177096500D02*
X67851700Y-161856500D01*
X67851700Y-161856500D02*
X83091700Y-161856500D01*
X83091700Y-161856500D02*
X83091700Y-177096500D01*
X102141700Y-104706400D02*
X102141700Y-119946400D01*
X86901700Y-104706400D02*
X102141700Y-104706400D01*
X86901700Y-119946400D02*
X86901700Y-104706400D01*
X102141700Y-119946400D02*
X86901700Y-119946400D01*
X104522900Y-161856500D02*
X104522900Y-177096500D01*
X89282900Y-161856500D02*
X104522900Y-161856500D01*
X89282900Y-177096500D02*
X89282900Y-161856500D01*
X104522900Y-177096500D02*
X89282900Y-177096500D01*
X114046499Y-196146530D02*
X98806499Y-196146530D01*
X98806499Y-196146530D02*
X98806499Y-180906530D01*
X98806499Y-180906530D02*
X114046499Y-180906530D01*
X114046499Y-180906530D02*
X114046499Y-196146530D01*
X121191700Y-104706400D02*
X121191700Y-119946400D01*
X105951700Y-104706400D02*
X121191700Y-104706400D01*
X105951700Y-119946400D02*
X105951700Y-104706400D01*
X121191700Y-119946400D02*
X105951700Y-119946400D01*
X111665300Y-123756400D02*
X111665300Y-138996400D01*
X96425300Y-123756400D02*
X111665300Y-123756400D01*
X96425300Y-138996400D02*
X96425300Y-123756400D01*
X111665300Y-138996400D02*
X96425300Y-138996400D01*
X116429199Y-158047800D02*
X101189199Y-158047800D01*
X101189199Y-158047800D02*
X101189199Y-142807800D01*
X101189199Y-142807800D02*
X116429199Y-142807800D01*
X116429199Y-142807800D02*
X116429199Y-158047800D01*
X125952800Y-161856500D02*
X125952800Y-177096500D01*
X110712800Y-161856500D02*
X125952800Y-161856500D01*
X110712800Y-177096500D02*
X110712800Y-161856500D01*
X125952800Y-177096500D02*
X110712800Y-177096500D01*
X140241700Y-119946400D02*
X125001700Y-119946400D01*
X125001700Y-119946400D02*
X125001700Y-104706400D01*
X125001700Y-104706400D02*
X140241700Y-104706400D01*
X140241700Y-104706400D02*
X140241700Y-119946400D01*
X130715300Y-138996400D02*
X115475300Y-138996400D01*
X115475300Y-138996400D02*
X115475300Y-123756400D01*
X115475300Y-123756400D02*
X130715300Y-123756400D01*
X130715300Y-123756400D02*
X130715300Y-138996400D01*
X135504201Y-142807800D02*
X135504201Y-158047800D01*
X120264201Y-142807800D02*
X135504201Y-142807800D01*
X120264201Y-158047800D02*
X120264201Y-142807800D01*
X135504201Y-158047800D02*
X120264201Y-158047800D01*
X145002800Y-177096500D02*
X129762800Y-177096500D01*
X129762800Y-177096500D02*
X129762800Y-161856500D01*
X129762800Y-161856500D02*
X145002800Y-161856500D01*
X145002800Y-161856500D02*
X145002800Y-177096500D01*
X135477900Y-180906530D02*
X135477900Y-196146530D01*
X120237900Y-180906530D02*
X135477900Y-180906530D01*
X120237900Y-196146530D02*
X120237900Y-180906530D01*
X135477900Y-196146530D02*
X120237900Y-196146530D01*
X159291700Y-104706400D02*
X159291700Y-119946400D01*
X144051700Y-104706400D02*
X159291700Y-104706400D01*
X144051700Y-119946400D02*
X144051700Y-104706400D01*
X159291700Y-119946400D02*
X144051700Y-119946400D01*
X149765300Y-138996400D02*
X134525300Y-138996400D01*
X134525300Y-138996400D02*
X134525300Y-123756400D01*
X134525300Y-123756400D02*
X149765300Y-123756400D01*
X149765300Y-123756400D02*
X149765300Y-138996400D01*
X154529199Y-142807800D02*
X154529199Y-158047800D01*
X139289199Y-142807800D02*
X154529199Y-142807800D01*
X139289199Y-158047800D02*
X139289199Y-142807800D01*
X154529199Y-158047800D02*
X139289199Y-158047800D01*
X164052800Y-177096500D02*
X148812800Y-177096500D01*
X148812800Y-177096500D02*
X148812800Y-161856500D01*
X148812800Y-161856500D02*
X164052800Y-161856500D01*
X164052800Y-161856500D02*
X164052800Y-177096500D01*
X178341700Y-119946400D02*
X163101700Y-119946400D01*
X163101700Y-119946400D02*
X163101700Y-104706400D01*
X163101700Y-104706400D02*
X178341700Y-104706400D01*
X178341700Y-104706400D02*
X178341700Y-119946400D01*
X168815300Y-123756400D02*
X168815300Y-138996400D01*
X153575300Y-123756400D02*
X168815300Y-123756400D01*
X153575300Y-138996400D02*
X153575300Y-123756400D01*
X168815300Y-138996400D02*
X153575300Y-138996400D01*
X173579199Y-158047800D02*
X158339199Y-158047800D01*
X158339199Y-158047800D02*
X158339199Y-142807800D01*
X158339199Y-142807800D02*
X173579199Y-142807800D01*
X173579199Y-142807800D02*
X173579199Y-158047800D01*
X183102800Y-161856500D02*
X183102800Y-177096500D01*
X167862800Y-161856500D02*
X183102800Y-161856500D01*
X167862800Y-177096500D02*
X167862800Y-161856500D01*
X183102800Y-177096500D02*
X167862800Y-177096500D01*
X197391700Y-104706400D02*
X197391700Y-119946400D01*
X182151700Y-104706400D02*
X197391700Y-104706400D01*
X182151700Y-119946400D02*
X182151700Y-104706400D01*
X197391700Y-119946400D02*
X182151700Y-119946400D01*
X187865300Y-138996400D02*
X172625300Y-138996400D01*
X172625300Y-138996400D02*
X172625300Y-123756400D01*
X172625300Y-123756400D02*
X187865300Y-123756400D01*
X187865300Y-123756400D02*
X187865300Y-138996400D01*
X192629199Y-142807800D02*
X192629199Y-158047800D01*
X177389199Y-142807800D02*
X192629199Y-142807800D01*
X177389199Y-158047800D02*
X177389199Y-142807800D01*
X192629199Y-158047800D02*
X177389199Y-158047800D01*
X202152800Y-177096500D02*
X186912800Y-177096500D01*
X186912800Y-177096500D02*
X186912800Y-161856500D01*
X186912800Y-161856500D02*
X202152800Y-161856500D01*
X202152800Y-161856500D02*
X202152800Y-177096500D01*
X204536000Y-180906530D02*
X204536000Y-196146530D01*
X189296000Y-180906530D02*
X204536000Y-180906530D01*
X189296000Y-196146530D02*
X189296000Y-180906530D01*
X204536000Y-196146530D02*
X189296000Y-196146530D01*
X216441700Y-119946400D02*
X201201700Y-119946400D01*
X201201700Y-119946400D02*
X201201700Y-104706400D01*
X201201700Y-104706400D02*
X216441700Y-104706400D01*
X216441700Y-104706400D02*
X216441700Y-119946400D01*
X206915300Y-138996400D02*
X191675300Y-138996400D01*
X191675300Y-138996400D02*
X191675300Y-123756400D01*
X191675300Y-123756400D02*
X206915300Y-123756400D01*
X206915300Y-123756400D02*
X206915300Y-138996400D01*
X211679199Y-158047800D02*
X196439199Y-158047800D01*
X196439199Y-158047800D02*
X196439199Y-142807800D01*
X196439199Y-142807800D02*
X211679199Y-142807800D01*
X211679199Y-142807800D02*
X211679199Y-158047800D01*
X221202800Y-161856500D02*
X221202800Y-177096500D01*
X205962800Y-161856500D02*
X221202800Y-161856500D01*
X205962800Y-177096500D02*
X205962800Y-161856500D01*
X221202800Y-177096500D02*
X205962800Y-177096500D01*
X235491700Y-104706400D02*
X235491700Y-119946400D01*
X220251700Y-104706400D02*
X235491700Y-104706400D01*
X220251700Y-119946400D02*
X220251700Y-104706400D01*
X235491700Y-119946400D02*
X220251700Y-119946400D01*
X225965300Y-138996400D02*
X210725300Y-138996400D01*
X210725300Y-138996400D02*
X210725300Y-123756400D01*
X210725300Y-123756400D02*
X225965300Y-123756400D01*
X225965300Y-123756400D02*
X225965300Y-138996400D01*
X230729199Y-142807800D02*
X230729199Y-158047800D01*
X215489199Y-142807800D02*
X230729199Y-142807800D01*
X215489199Y-158047800D02*
X215489199Y-142807800D01*
X230729199Y-158047800D02*
X215489199Y-158047800D01*
X240252800Y-177096500D02*
X225012800Y-177096500D01*
X225012800Y-177096500D02*
X225012800Y-161856500D01*
X225012800Y-161856500D02*
X240252800Y-161856500D01*
X240252800Y-161856500D02*
X240252800Y-177096500D01*
X254541700Y-119946400D02*
X239301700Y-119946400D01*
X239301700Y-119946400D02*
X239301700Y-104706400D01*
X239301700Y-104706400D02*
X254541700Y-104706400D01*
X254541700Y-104706400D02*
X254541700Y-119946400D01*
X245015300Y-123756400D02*
X245015300Y-138996400D01*
X229775300Y-123756400D02*
X245015300Y-123756400D01*
X229775300Y-138996400D02*
X229775300Y-123756400D01*
X245015300Y-138996400D02*
X229775300Y-138996400D01*
X249779199Y-158047800D02*
X234539199Y-158047800D01*
X234539199Y-158047800D02*
X234539199Y-142807800D01*
X234539199Y-142807800D02*
X249779199Y-142807800D01*
X249779199Y-142807800D02*
X249779199Y-158047800D01*
X259302800Y-161856500D02*
X259302800Y-177096500D01*
X244062800Y-161856500D02*
X259302800Y-161856500D01*
X244062800Y-177096500D02*
X244062800Y-161856500D01*
X259302800Y-177096500D02*
X244062800Y-177096500D01*
X273591700Y-104706400D02*
X273591700Y-119946400D01*
X258351700Y-104706400D02*
X273591700Y-104706400D01*
X258351700Y-119946400D02*
X258351700Y-104706400D01*
X273591700Y-119946400D02*
X258351700Y-119946400D01*
X264065300Y-138996400D02*
X248825300Y-138996400D01*
X248825300Y-138996400D02*
X248825300Y-123756400D01*
X248825300Y-123756400D02*
X264065300Y-123756400D01*
X264065300Y-123756400D02*
X264065300Y-138996400D01*
X268829199Y-142807800D02*
X268829199Y-158047800D01*
X253589199Y-142807800D02*
X268829199Y-142807800D01*
X253589199Y-158047800D02*
X253589199Y-142807800D01*
X268829199Y-158047800D02*
X253589199Y-158047800D01*
X278352800Y-177096500D02*
X263112800Y-177096500D01*
X263112800Y-177096500D02*
X263112800Y-161856500D01*
X263112800Y-161856500D02*
X278352800Y-161856500D01*
X278352800Y-161856500D02*
X278352800Y-177096500D01*
X275970999Y-180906530D02*
X275970999Y-196146530D01*
X260730999Y-180906530D02*
X275970999Y-180906530D01*
X260730999Y-196146530D02*
X260730999Y-180906530D01*
X275970999Y-196146530D02*
X260730999Y-196146530D01*
X292641700Y-119946400D02*
X277401700Y-119946400D01*
X277401700Y-119946400D02*
X277401700Y-104706400D01*
X277401700Y-104706400D02*
X292641700Y-104706400D01*
X292641700Y-104706400D02*
X292641700Y-119946400D01*
X283115300Y-123756400D02*
X283115300Y-138996400D01*
X267875300Y-123756400D02*
X283115300Y-123756400D01*
X267875300Y-138996400D02*
X267875300Y-123756400D01*
X283115300Y-138996400D02*
X267875300Y-138996400D01*
X287879199Y-158047800D02*
X272639199Y-158047800D01*
X272639199Y-158047800D02*
X272639199Y-142807800D01*
X272639199Y-142807800D02*
X287879199Y-142807800D01*
X287879199Y-142807800D02*
X287879199Y-158047800D01*
X297402800Y-177096500D02*
X282162800Y-177096500D01*
X282162800Y-177096500D02*
X282162800Y-161856500D01*
X282162800Y-161856500D02*
X297402800Y-161856500D01*
X297402800Y-161856500D02*
X297402800Y-177096500D01*
X299787000Y-180906530D02*
X299787000Y-196146530D01*
X284547000Y-180906530D02*
X299787000Y-180906530D01*
X284547000Y-196146530D02*
X284547000Y-180906530D01*
X299787000Y-196146530D02*
X284547000Y-196146530D01*
X311691700Y-104706400D02*
X311691700Y-119946400D01*
X296451700Y-104706400D02*
X311691700Y-104706400D01*
X296451700Y-119946400D02*
X296451700Y-104706400D01*
X311691700Y-119946400D02*
X296451700Y-119946400D01*
X302165300Y-138996400D02*
X286925300Y-138996400D01*
X286925300Y-138996400D02*
X286925300Y-123756400D01*
X286925300Y-123756400D02*
X302165300Y-123756400D01*
X302165300Y-123756400D02*
X302165300Y-138996400D01*
X306929199Y-142807800D02*
X306929199Y-158047800D01*
X291689199Y-142807800D02*
X306929199Y-142807800D01*
X291689199Y-158047800D02*
X291689199Y-142807800D01*
X306929199Y-158047800D02*
X291689199Y-158047800D01*
X321214000Y-180906530D02*
X321214000Y-196146530D01*
X305974000Y-180906530D02*
X321214000Y-180906530D01*
X305974000Y-196146530D02*
X305974000Y-180906530D01*
X321214000Y-196146530D02*
X305974000Y-196146530D01*
X330741700Y-119946400D02*
X315501700Y-119946400D01*
X315501700Y-119946400D02*
X315501700Y-104706400D01*
X315501700Y-104706400D02*
X330741700Y-104706400D01*
X330741700Y-104706400D02*
X330741700Y-119946400D01*
X321215300Y-138996400D02*
X305975300Y-138996400D01*
X305975300Y-138996400D02*
X305975300Y-123756400D01*
X305975300Y-123756400D02*
X321215300Y-123756400D01*
X321215300Y-123756400D02*
X321215300Y-138996400D01*
X337883000Y-142807800D02*
X337883000Y-158047800D01*
X322643000Y-142807800D02*
X337883000Y-142807800D01*
X322643000Y-158047800D02*
X322643000Y-142807800D01*
X337883000Y-158047800D02*
X322643000Y-158047800D01*
X323597000Y-161856500D02*
X323597000Y-177096500D01*
X308357000Y-161856500D02*
X323597000Y-161856500D01*
X308357000Y-177096500D02*
X308357000Y-161856500D01*
X323597000Y-177096500D02*
X308357000Y-177096500D01*
X349791700Y-119946400D02*
X334551700Y-119946400D01*
X334551700Y-119946400D02*
X334551700Y-104706400D01*
X334551700Y-104706400D02*
X349791700Y-104706400D01*
X349791700Y-104706400D02*
X349791700Y-119946400D01*
X345028000Y-123756400D02*
X345028000Y-138996400D01*
X329788000Y-123756400D02*
X345028000Y-123756400D01*
X329788000Y-138996400D02*
X329788000Y-123756400D01*
X345028000Y-138996400D02*
X329788000Y-138996400D01*
X349790000Y-177096500D02*
X334550000Y-177096500D01*
X334550000Y-177096500D02*
X334550000Y-161856500D01*
X334550000Y-161856500D02*
X349790000Y-161856500D01*
X349790000Y-161856500D02*
X349790000Y-177096500D01*
X83091700Y-119946400D02*
X67851700Y-119946400D01*
X67851700Y-119946400D02*
X67851700Y-104706400D01*
X67851700Y-104706400D02*
X83091700Y-104706400D01*
X83091700Y-104706400D02*
X83091700Y-119946400D01*
X87854199Y-123756400D02*
X87854199Y-138996400D01*
X72614199Y-123756400D02*
X87854199Y-123756400D01*
X72614199Y-138996400D02*
X72614199Y-123756400D01*
X87854199Y-138996400D02*
X72614199Y-138996400D01*
X90235499Y-142807800D02*
X90235499Y-158047800D01*
X74995499Y-142807800D02*
X90235499Y-142807800D01*
X74995499Y-158047800D02*
X74995499Y-142807800D01*
X90235499Y-158047800D02*
X74995499Y-158047800D01*
X83091700Y-177096500D02*
X67851700Y-177096500D01*
X67851700Y-177096500D02*
X67851700Y-161856500D01*
X67851700Y-161856500D02*
X83091700Y-161856500D01*
X83091700Y-161856500D02*
X83091700Y-177096500D01*
X102141700Y-119946400D02*
X86901700Y-119946400D01*
X86901700Y-119946400D02*
X86901700Y-104706400D01*
X86901700Y-104706400D02*
X102141700Y-104706400D01*
X102141700Y-104706400D02*
X102141700Y-119946400D01*
X104522900Y-177096500D02*
X89282900Y-177096500D01*
X89282900Y-177096500D02*
X89282900Y-161856500D01*
X89282900Y-161856500D02*
X104522900Y-161856500D01*
X104522900Y-161856500D02*
X104522900Y-177096500D01*
X114046499Y-196146530D02*
X98806499Y-196146530D01*
X98806499Y-196146530D02*
X98806499Y-180906530D01*
X98806499Y-180906530D02*
X114046499Y-180906530D01*
X114046499Y-180906530D02*
X114046499Y-196146530D01*
X121191700Y-104706400D02*
X121191700Y-119946400D01*
X105951700Y-104706400D02*
X121191700Y-104706400D01*
X105951700Y-119946400D02*
X105951700Y-104706400D01*
X121191700Y-119946400D02*
X105951700Y-119946400D01*
X111665300Y-123756400D02*
X111665300Y-138996400D01*
X96425300Y-123756400D02*
X111665300Y-123756400D01*
X96425300Y-138996400D02*
X96425300Y-123756400D01*
X111665300Y-138996400D02*
X96425300Y-138996400D01*
X116429199Y-158047800D02*
X101189199Y-158047800D01*
X101189199Y-158047800D02*
X101189199Y-142807800D01*
X101189199Y-142807800D02*
X116429199Y-142807800D01*
X116429199Y-142807800D02*
X116429199Y-158047800D01*
X125952800Y-161856500D02*
X125952800Y-177096500D01*
X110712800Y-161856500D02*
X125952800Y-161856500D01*
X110712800Y-177096500D02*
X110712800Y-161856500D01*
X125952800Y-177096500D02*
X110712800Y-177096500D01*
X140241700Y-119946400D02*
X125001700Y-119946400D01*
X125001700Y-119946400D02*
X125001700Y-104706400D01*
X125001700Y-104706400D02*
X140241700Y-104706400D01*
X140241700Y-104706400D02*
X140241700Y-119946400D01*
X130715300Y-123756400D02*
X130715300Y-138996400D01*
X115475300Y-123756400D02*
X130715300Y-123756400D01*
X115475300Y-138996400D02*
X115475300Y-123756400D01*
X130715300Y-138996400D02*
X115475300Y-138996400D01*
X135504201Y-142807800D02*
X135504201Y-158047800D01*
X120264201Y-142807800D02*
X135504201Y-142807800D01*
X120264201Y-158047800D02*
X120264201Y-142807800D01*
X135504201Y-158047800D02*
X120264201Y-158047800D01*
X145002800Y-161856500D02*
X145002800Y-177096500D01*
X129762800Y-161856500D02*
X145002800Y-161856500D01*
X129762800Y-177096500D02*
X129762800Y-161856500D01*
X145002800Y-177096500D02*
X129762800Y-177096500D01*
X135477900Y-196146530D02*
X120237900Y-196146530D01*
X120237900Y-196146530D02*
X120237900Y-180906530D01*
X120237900Y-180906530D02*
X135477900Y-180906530D01*
X135477900Y-180906530D02*
X135477900Y-196146530D01*
X159291700Y-119946400D02*
X144051700Y-119946400D01*
X144051700Y-119946400D02*
X144051700Y-104706400D01*
X144051700Y-104706400D02*
X159291700Y-104706400D01*
X159291700Y-104706400D02*
X159291700Y-119946400D01*
X149765300Y-123756400D02*
X149765300Y-138996400D01*
X134525300Y-123756400D02*
X149765300Y-123756400D01*
X134525300Y-138996400D02*
X134525300Y-123756400D01*
X149765300Y-138996400D02*
X134525300Y-138996400D01*
X154529199Y-158047800D02*
X139289199Y-158047800D01*
X139289199Y-158047800D02*
X139289199Y-142807800D01*
X139289199Y-142807800D02*
X154529199Y-142807800D01*
X154529199Y-142807800D02*
X154529199Y-158047800D01*
X164052800Y-161856500D02*
X164052800Y-177096500D01*
X148812800Y-161856500D02*
X164052800Y-161856500D01*
X148812800Y-177096500D02*
X148812800Y-161856500D01*
X164052800Y-177096500D02*
X148812800Y-177096500D01*
X178341700Y-119946400D02*
X163101700Y-119946400D01*
X163101700Y-119946400D02*
X163101700Y-104706400D01*
X163101700Y-104706400D02*
X178341700Y-104706400D01*
X178341700Y-104706400D02*
X178341700Y-119946400D01*
X168815300Y-123756400D02*
X168815300Y-138996400D01*
X153575300Y-123756400D02*
X168815300Y-123756400D01*
X153575300Y-138996400D02*
X153575300Y-123756400D01*
X168815300Y-138996400D02*
X153575300Y-138996400D01*
X173579199Y-142807800D02*
X173579199Y-158047800D01*
X158339199Y-142807800D02*
X173579199Y-142807800D01*
X158339199Y-158047800D02*
X158339199Y-142807800D01*
X173579199Y-158047800D02*
X158339199Y-158047800D01*
X183102800Y-161856500D02*
X183102800Y-177096500D01*
X167862800Y-161856500D02*
X183102800Y-161856500D01*
X167862800Y-177096500D02*
X167862800Y-161856500D01*
X183102800Y-177096500D02*
X167862800Y-177096500D01*
X197391700Y-104706400D02*
X197391700Y-119946400D01*
X182151700Y-104706400D02*
X197391700Y-104706400D01*
X182151700Y-119946400D02*
X182151700Y-104706400D01*
X197391700Y-119946400D02*
X182151700Y-119946400D01*
X187865300Y-123756400D02*
X187865300Y-138996400D01*
X172625300Y-123756400D02*
X187865300Y-123756400D01*
X172625300Y-138996400D02*
X172625300Y-123756400D01*
X187865300Y-138996400D02*
X172625300Y-138996400D01*
X192629199Y-142807800D02*
X192629199Y-158047800D01*
X177389199Y-142807800D02*
X192629199Y-142807800D01*
X177389199Y-158047800D02*
X177389199Y-142807800D01*
X192629199Y-158047800D02*
X177389199Y-158047800D01*
X202152800Y-161856500D02*
X202152800Y-177096500D01*
X186912800Y-161856500D02*
X202152800Y-161856500D01*
X186912800Y-177096500D02*
X186912800Y-161856500D01*
X202152800Y-177096500D02*
X186912800Y-177096500D01*
X204536000Y-180906530D02*
X204536000Y-196146530D01*
X189296000Y-180906530D02*
X204536000Y-180906530D01*
X189296000Y-196146530D02*
X189296000Y-180906530D01*
X204536000Y-196146530D02*
X189296000Y-196146530D01*
X216441700Y-104706400D02*
X216441700Y-119946400D01*
X201201700Y-104706400D02*
X216441700Y-104706400D01*
X201201700Y-119946400D02*
X201201700Y-104706400D01*
X216441700Y-119946400D02*
X201201700Y-119946400D01*
X206915300Y-123756400D02*
X206915300Y-138996400D01*
X191675300Y-123756400D02*
X206915300Y-123756400D01*
X191675300Y-138996400D02*
X191675300Y-123756400D01*
X206915300Y-138996400D02*
X191675300Y-138996400D01*
X211679199Y-158047800D02*
X196439199Y-158047800D01*
X196439199Y-158047800D02*
X196439199Y-142807800D01*
X196439199Y-142807800D02*
X211679199Y-142807800D01*
X211679199Y-142807800D02*
X211679199Y-158047800D01*
X221202800Y-161856500D02*
X221202800Y-177096500D01*
X205962800Y-161856500D02*
X221202800Y-161856500D01*
X205962800Y-177096500D02*
X205962800Y-161856500D01*
X221202800Y-177096500D02*
X205962800Y-177096500D01*
X235491700Y-119946400D02*
X220251700Y-119946400D01*
X220251700Y-119946400D02*
X220251700Y-104706400D01*
X220251700Y-104706400D02*
X235491700Y-104706400D01*
X235491700Y-104706400D02*
X235491700Y-119946400D01*
X225965300Y-138996400D02*
X210725300Y-138996400D01*
X210725300Y-138996400D02*
X210725300Y-123756400D01*
X210725300Y-123756400D02*
X225965300Y-123756400D01*
X225965300Y-123756400D02*
X225965300Y-138996400D01*
X230729199Y-158047800D02*
X215489199Y-158047800D01*
X215489199Y-158047800D02*
X215489199Y-142807800D01*
X215489199Y-142807800D02*
X230729199Y-142807800D01*
X230729199Y-142807800D02*
X230729199Y-158047800D01*
X240252800Y-177096500D02*
X225012800Y-177096500D01*
X225012800Y-177096500D02*
X225012800Y-161856500D01*
X225012800Y-161856500D02*
X240252800Y-161856500D01*
X240252800Y-161856500D02*
X240252800Y-177096500D01*
X254541700Y-104706400D02*
X254541700Y-119946400D01*
X239301700Y-104706400D02*
X254541700Y-104706400D01*
X239301700Y-119946400D02*
X239301700Y-104706400D01*
X254541700Y-119946400D02*
X239301700Y-119946400D01*
X245015300Y-138996400D02*
X229775300Y-138996400D01*
X229775300Y-138996400D02*
X229775300Y-123756400D01*
X229775300Y-123756400D02*
X245015300Y-123756400D01*
X245015300Y-123756400D02*
X245015300Y-138996400D01*
X249779199Y-158047800D02*
X234539199Y-158047800D01*
X234539199Y-158047800D02*
X234539199Y-142807800D01*
X234539199Y-142807800D02*
X249779199Y-142807800D01*
X249779199Y-142807800D02*
X249779199Y-158047800D01*
X259302800Y-161856500D02*
X259302800Y-177096500D01*
X244062800Y-161856500D02*
X259302800Y-161856500D01*
X244062800Y-177096500D02*
X244062800Y-161856500D01*
X259302800Y-177096500D02*
X244062800Y-177096500D01*
X273591700Y-119946400D02*
X258351700Y-119946400D01*
X258351700Y-119946400D02*
X258351700Y-104706400D01*
X258351700Y-104706400D02*
X273591700Y-104706400D01*
X273591700Y-104706400D02*
X273591700Y-119946400D01*
X264065300Y-138996400D02*
X248825300Y-138996400D01*
X248825300Y-138996400D02*
X248825300Y-123756400D01*
X248825300Y-123756400D02*
X264065300Y-123756400D01*
X264065300Y-123756400D02*
X264065300Y-138996400D01*
X268829199Y-158047800D02*
X253589199Y-158047800D01*
X253589199Y-158047800D02*
X253589199Y-142807800D01*
X253589199Y-142807800D02*
X268829199Y-142807800D01*
X268829199Y-142807800D02*
X268829199Y-158047800D01*
X278352800Y-177096500D02*
X263112800Y-177096500D01*
X263112800Y-177096500D02*
X263112800Y-161856500D01*
X263112800Y-161856500D02*
X278352800Y-161856500D01*
X278352800Y-161856500D02*
X278352800Y-177096500D01*
X275970999Y-180906530D02*
X275970999Y-196146530D01*
X260730999Y-180906530D02*
X275970999Y-180906530D01*
X260730999Y-196146530D02*
X260730999Y-180906530D01*
X275970999Y-196146530D02*
X260730999Y-196146530D01*
X292641700Y-104706400D02*
X292641700Y-119946400D01*
X277401700Y-104706400D02*
X292641700Y-104706400D01*
X277401700Y-119946400D02*
X277401700Y-104706400D01*
X292641700Y-119946400D02*
X277401700Y-119946400D01*
X283115300Y-138996400D02*
X267875300Y-138996400D01*
X267875300Y-138996400D02*
X267875300Y-123756400D01*
X267875300Y-123756400D02*
X283115300Y-123756400D01*
X283115300Y-123756400D02*
X283115300Y-138996400D01*
X287879199Y-142807800D02*
X287879199Y-158047800D01*
X272639199Y-142807800D02*
X287879199Y-142807800D01*
X272639199Y-158047800D02*
X272639199Y-142807800D01*
X287879199Y-158047800D02*
X272639199Y-158047800D01*
X297402800Y-161856500D02*
X297402800Y-177096500D01*
X282162800Y-161856500D02*
X297402800Y-161856500D01*
X282162800Y-177096500D02*
X282162800Y-161856500D01*
X297402800Y-177096500D02*
X282162800Y-177096500D01*
X299787000Y-180906530D02*
X299787000Y-196146530D01*
X284547000Y-180906530D02*
X299787000Y-180906530D01*
X284547000Y-196146530D02*
X284547000Y-180906530D01*
X299787000Y-196146530D02*
X284547000Y-196146530D01*
X311691700Y-119946400D02*
X296451700Y-119946400D01*
X296451700Y-119946400D02*
X296451700Y-104706400D01*
X296451700Y-104706400D02*
X311691700Y-104706400D01*
X311691700Y-104706400D02*
X311691700Y-119946400D01*
X302165300Y-138996400D02*
X286925300Y-138996400D01*
X286925300Y-138996400D02*
X286925300Y-123756400D01*
X286925300Y-123756400D02*
X302165300Y-123756400D01*
X302165300Y-123756400D02*
X302165300Y-138996400D01*
X306929199Y-158047800D02*
X291689199Y-158047800D01*
X291689199Y-158047800D02*
X291689199Y-142807800D01*
X291689199Y-142807800D02*
X306929199Y-142807800D01*
X306929199Y-142807800D02*
X306929199Y-158047800D01*
X321214000Y-180906530D02*
X321214000Y-196146530D01*
X305974000Y-180906530D02*
X321214000Y-180906530D01*
X305974000Y-196146530D02*
X305974000Y-180906530D01*
X321214000Y-196146530D02*
X305974000Y-196146530D01*
X330741700Y-119946400D02*
X315501700Y-119946400D01*
X315501700Y-119946400D02*
X315501700Y-104706400D01*
X315501700Y-104706400D02*
X330741700Y-104706400D01*
X330741700Y-104706400D02*
X330741700Y-119946400D01*
X321215300Y-138996400D02*
X305975300Y-138996400D01*
X305975300Y-138996400D02*
X305975300Y-123756400D01*
X305975300Y-123756400D02*
X321215300Y-123756400D01*
X321215300Y-123756400D02*
X321215300Y-138996400D01*
X337883000Y-142807800D02*
X337883000Y-158047800D01*
X322643000Y-142807800D02*
X337883000Y-142807800D01*
X322643000Y-158047800D02*
X322643000Y-142807800D01*
X337883000Y-158047800D02*
X322643000Y-158047800D01*
X323597000Y-177096500D02*
X308357000Y-177096500D01*
X308357000Y-177096500D02*
X308357000Y-161856500D01*
X308357000Y-161856500D02*
X323597000Y-161856500D01*
X323597000Y-161856500D02*
X323597000Y-177096500D01*
X349791700Y-119946400D02*
X334551700Y-119946400D01*
X334551700Y-119946400D02*
X334551700Y-104706400D01*
X334551700Y-104706400D02*
X349791700Y-104706400D01*
X349791700Y-104706400D02*
X349791700Y-119946400D01*
X345028000Y-138996400D02*
X329788000Y-138996400D01*
X329788000Y-138996400D02*
X329788000Y-123756400D01*
X329788000Y-123756400D02*
X345028000Y-123756400D01*
X345028000Y-123756400D02*
X345028000Y-138996400D01*
M02*
