M48
; DRILL file {KiCad (5.1.2-1)-1} date 2020年06月06日 星期六 11:17:54
; FORMAT={-:-/ absolute / inch / decimal}
; #@! TF.CreationDate,2020-06-06T23:17:54+08:00
; #@! TF.GenerationSoftware,Kicad,Pcbnew,(5.1.2-1)-1
; #@! TF.FileFunction,Plated,1,2,PTH
FMAT,2
INCH
T1C0.0157
T2C0.0320
T3C0.0591
T4C0.0984
T5C0.0984
%
G90
G05
T1
X2.6713Y-7.3223
X2.6713Y-7.6223
X2.7213Y-4.7973
X2.7213Y-5.5473
X2.7213Y-5.9723
X2.7213Y-7.0473
X2.8213Y-5.4473
X2.8963Y-7.3223
X2.8963Y-7.6223
X2.9214Y-6.1974
X2.9713Y-4.2923
X2.9713Y-4.6723
X2.9963Y-6.2723
X3.0213Y-4.5723
X3.0463Y-5.1723
X3.0463Y-5.6473
X3.1213Y-4.8223
X3.1463Y-7.3223
X3.1463Y-7.6223
X3.2713Y-6.4723
X3.3213Y-4.1723
X3.3313Y-4.6223
X3.3963Y-7.3223
X3.3963Y-7.6223
X3.4213Y-4.7723
X3.4313Y-4.6223
X3.4463Y-6.9473
X3.5963Y-6.4723
X3.6213Y-5.8973
X3.6713Y-4.9223
X3.6963Y-5.6223
X3.6963Y-7.3223
X3.6963Y-7.6223
X3.7463Y-5.4473
X3.7713Y-7.5473
X3.7963Y-5.1473
X3.8713Y-4.6973
X3.8713Y-4.8223
X3.9213Y-5.6473
X3.9214Y-6.1974
X4.0583Y-4.7593
X4.0713Y-4.2223
X4.1213Y-4.6973
X4.1713Y-5.5473
X4.1713Y-7.0723
X4.2213Y-6.4223
X4.2713Y-6.9473
X4.3113Y-6.2823
X4.3213Y-7.0723
X4.3713Y-6.1723
X4.3713Y-6.4223
X4.4713Y-6.1723
X4.4713Y-6.2723
X4.4963Y-5.1723
X4.4963Y-5.4473
X4.5713Y-7.2223
X4.6714Y-6.1974
X4.7713Y-6.8723
X4.8213Y-4.2223
X4.8463Y-4.6973
X5.0213Y-6.9973
X5.0533Y-6.9542
X5.0713Y-6.4223
X5.0713Y-6.6223
X5.1463Y-7.1473
X5.2038Y-7.1148
X5.2213Y-4.9223
X5.2463Y-5.4473
X5.2963Y-5.1723
X5.3713Y-6.3723
X5.3713Y-6.9973
X5.3713Y-7.1723
X5.4214Y-6.1974
X5.4963Y-7.2223
X5.4963Y-7.2723
X5.5213Y-5.4973
X5.5213Y-5.7223
X5.5213Y-7.6223
X5.5713Y-4.2223
X5.5963Y-4.6973
X5.6463Y-7.4723
X5.7113Y-7.3623
X5.7713Y-7.2473
X5.7713Y-7.4973
X5.7963Y-6.9473
X5.8213Y-5.3973
X5.8213Y-6.6223
X5.8213Y-7.2973
X5.8213Y-7.3723
X5.9213Y-7.1473
X5.9583Y-7.0093
X5.9713Y-5.1723
X5.9713Y-5.4473
X6.0213Y-6.2723
X6.1713Y-6.1973
X6.2713Y-6.8723
X6.3213Y-4.2223
X6.3413Y-7.5023
X6.3463Y-4.6973
X6.3463Y-7.7223
X6.3643Y-7.0093
X6.3713Y-5.4973
X6.3713Y-5.7223
X6.3713Y-7.1633
X6.3963Y-5.8723
X6.5463Y-7.4223
X6.5713Y-6.5973
X6.5713Y-6.9473
X6.5963Y-6.4473
X6.5963Y-7.3223
X6.6463Y-7.3723
X6.6713Y-7.5723
X6.6888Y-7.2866
X6.7213Y-4.9223
X6.7213Y-5.4473
X6.7713Y-5.1723
X6.7713Y-7.4973
X6.7716Y-7.5475
X6.865Y-6.3672
X6.8963Y-5.7223
X6.9214Y-6.1974
X6.9713Y-5.4973
X6.9713Y-5.7223
X6.9713Y-5.8723
X6.9713Y-7.6223
X6.9813Y-7.2523
X7.0113Y-7.0093
X7.0463Y-7.458
X7.0713Y-4.2223
X7.0713Y-7.5973
X7.0963Y-4.6973
X7.0963Y-7.6723
X7.1913Y-7.3723
X7.2013Y-7.2023
X7.2963Y-6.9473
X7.2963Y-7.2399
X7.3463Y-7.5473
X7.4213Y-6.3223
X7.4713Y-5.4473
X7.4713Y-6.4223
X7.4713Y-7.1223
X7.4963Y-5.1723
X7.5213Y-6.6223
X7.5713Y-7.3473
X7.6713Y-6.8723
X7.6713Y-7.1223
X7.6714Y-6.1974
X7.7713Y-6.8723
X7.8213Y-4.2223
X7.8463Y-4.6973
X8.0501Y-6.9473
X8.0713Y-6.4223
X8.1781Y-7.5723
X8.2213Y-4.9223
X8.2213Y-5.4473
X8.2463Y-5.5473
X8.2713Y-5.1723
X8.3463Y-7.1973
X8.3572Y-6.3672
X8.4214Y-6.1974
X8.4713Y-5.7223
X8.4713Y-5.8723
X8.4713Y-6.9223
X8.5713Y-4.2223
X8.5963Y-4.6973
X8.7963Y-6.9473
X8.8213Y-6.2723
X8.8213Y-6.4223
X8.9213Y-7.6473
X8.9713Y-5.4473
X8.9713Y-5.5473
X8.9963Y-5.1723
X9.1464Y-6.1974
X9.2213Y-5.7223
X9.2213Y-5.8723
X9.2463Y-7.4223
X9.2713Y-6.8723
X9.3213Y-4.2223
X9.3463Y-4.6973
X9.3713Y-7.2223
X9.5533Y-6.9542
X9.5713Y-6.4223
X9.6963Y-5.5473
X9.6963Y-7.3473
X9.7213Y-4.9223
X9.7213Y-5.4473
X9.7713Y-5.1723
X9.865Y-6.3672
X9.8713Y-5.8723
X9.8713Y-7.3723
X9.9214Y-6.1974
X10.0213Y-5.7223
X10.0713Y-4.2223
X10.0713Y-6.8973
X10.0963Y-4.6973
X10.1713Y-7.0723
X10.2963Y-6.4223
X10.2963Y-6.9473
X10.4713Y-5.1723
X10.4713Y-7.0723
X10.4963Y-5.4473
X10.4963Y-5.5473
X10.6213Y-5.8723
X10.6714Y-6.1974
X10.7713Y-5.7223
X10.8213Y-4.2223
X10.8463Y-4.6973
X10.8713Y-6.2723
X10.9213Y-7.6473
X10.9463Y-7.0723
X10.9463Y-7.5473
X11.0213Y-6.4223
X11.0713Y-6.9473
X11.1713Y-4.9223
X11.2463Y-5.4473
X11.2963Y-5.1723
X11.3611Y-6.3672
X11.3963Y-7.0223
X11.4214Y-6.1974
X11.4713Y-5.5473
X11.4713Y-5.7223
X11.4713Y-5.8723
X11.5213Y-7.6223
X11.5713Y-4.2223
X11.6213Y-4.6973
X11.6213Y-6.9223
X11.6713Y-7.0723
X11.8213Y-7.6223
X11.8713Y-7.4223
X11.8963Y-7.5473
X11.9213Y-5.1723
X11.9713Y-6.4223
X11.9963Y-5.4473
X12.0713Y-6.1973
X12.0713Y-6.8223
X12.1463Y-5.5473
X12.1463Y-5.6973
X12.1463Y-5.9223
X12.2713Y-4.2223
X12.3713Y-4.6973
X12.4213Y-6.2973
X12.6713Y-5.5473
X12.6713Y-5.6973
X12.6713Y-5.9223
X12.7213Y-4.9223
X12.7913Y-7.6523
X12.8713Y-6.6723
X12.8713Y-6.8973
X12.9213Y-5.4473
X12.9813Y-5.3023
X13.0713Y-4.2223
X13.1213Y-4.6973
X13.1213Y-6.6723
X13.1213Y-6.8473
X13.1213Y-6.9473
X13.1713Y-7.4223
X13.1713Y-7.6223
X13.3313Y-5.3923
X13.5713Y-7.4223
X13.5713Y-7.6223
X13.6713Y-5.5223
X13.6713Y-6.1223
T2
X9.8588Y-6.4723
X9.9588Y-6.4723
X13.2338Y-4.9723
X13.3338Y-4.9723
X3.7651Y-6.4723
X3.8651Y-6.4723
X4.7963Y-4.9723
X4.8963Y-4.9723
X8.8213Y-7.4223
X8.9213Y-7.4223
X8.7338Y-5.7224
X8.8338Y-5.7224
X2.9213Y-4.2223
X3.0213Y-4.2223
X7.7963Y-4.9723
X7.8963Y-4.9723
X6.1088Y-6.4723
X6.2088Y-6.4723
X10.9838Y-5.7224
X11.0838Y-5.7224
X5.9213Y-4.2223
X6.0213Y-4.2223
X6.4838Y-5.7224
X6.5838Y-5.7224
X10.2338Y-5.7224
X10.3338Y-5.7224
X11.7338Y-5.7224
X11.8338Y-5.7224
X8.1713Y-4.2223
X8.2713Y-4.2223
X4.0463Y-4.9723
X4.1463Y-4.9723
X5.1713Y-4.2223
X5.2713Y-4.2223
X5.3588Y-6.4723
X5.4588Y-6.4723
X4.2338Y-5.7224
X4.3338Y-5.7224
X9.2963Y-4.9723
X9.3963Y-4.9723
X12.39Y-6.4723
X12.49Y-6.4723
X7.2338Y-5.7224
X7.3338Y-5.7224
X4.9848Y-5.7224
X5.0848Y-5.7224
X2.9213Y-6.4723
X3.0213Y-6.4723
X8.9213Y-4.2223
X9.0213Y-4.2223
X11.9213Y-4.2223
X12.0213Y-4.2223
X4.6088Y-6.4723
X4.7088Y-6.4723
X11.1713Y-4.2223
X11.2713Y-4.2223
X12.2963Y-4.9723
X12.3963Y-4.9723
X6.6713Y-4.2223
X6.7713Y-4.2223
X10.4213Y-4.2223
X10.5213Y-4.2223
X4.14Y-7.2223
X4.24Y-7.2223
X9.1088Y-6.4723
X9.2088Y-6.4723
X3.1088Y-4.9723
X3.2088Y-4.9723
X6.8588Y-6.4723
X6.9588Y-6.4723
X7.9838Y-5.7224
X8.0838Y-5.7224
X13.4213Y-6.4723
X13.5213Y-6.4723
X11.3588Y-6.4723
X11.4588Y-6.4723
X7.6088Y-6.4723
X7.7088Y-6.4723
X10.6088Y-6.4723
X10.7088Y-6.4723
X12.2962Y-7.2223
X12.3962Y-7.2223
X5.7338Y-5.7224
X5.8338Y-5.7224
X9.4838Y-5.7224
X9.5838Y-5.7224
X13.4213Y-4.2223
X13.5213Y-4.2223
X4.9838Y-7.2223
X5.0838Y-7.2223
X3.6713Y-4.2223
X3.7713Y-4.2223
X7.4213Y-4.2223
X7.5213Y-4.2223
X8.5463Y-4.9723
X8.6463Y-4.9723
X11.5463Y-4.9723
X11.6463Y-4.9723
X5.5463Y-4.9723
X5.6463Y-4.9723
X10.7963Y-4.9723
X10.8963Y-4.9723
X6.2963Y-4.9723
X6.3963Y-4.9723
X10.0463Y-4.9723
X10.1463Y-4.9723
X4.4213Y-4.2223
X4.5213Y-4.2223
X7.7026Y-7.2223
X7.8026Y-7.2223
X9.6713Y-4.2223
X9.7713Y-4.2223
X12.9525Y-5.7224
X13.0525Y-5.7224
X3.2026Y-5.7224
X3.3026Y-5.7224
X8.3588Y-6.4723
X8.4588Y-6.4723
X11.4526Y-7.2223
X11.5526Y-7.2223
X7.0463Y-4.9723
X7.1463Y-4.9723
X10.515Y-7.2223
X10.615Y-7.2223
X12.6713Y-4.2223
X12.7713Y-4.2223
T3
X12.2463Y-5.3723
X12.4963Y-5.2723
X3.6213Y-4.6223
X3.8713Y-4.5223
X7.3713Y-4.6223
X7.6213Y-4.5223
X3.0588Y-5.3723
X3.3088Y-5.2723
X10.3713Y-4.6223
X10.6213Y-4.5223
X4.1838Y-6.1224
X4.4338Y-6.0224
X13.3713Y-4.6223
X13.6213Y-4.5223
X9.0588Y-6.8723
X9.3088Y-6.7723
X11.1213Y-4.6223
X11.3713Y-4.5223
X11.3088Y-6.8723
X11.5588Y-6.7723
X4.3713Y-4.6223
X4.6213Y-4.5223
X5.4963Y-5.3723
X5.7463Y-5.2723
X7.5588Y-6.8723
X7.8088Y-6.7723
X12.2462Y-7.6223
X12.4962Y-7.5223
X4.7463Y-5.3723
X4.9963Y-5.2723
X6.4338Y-6.1224
X6.6838Y-6.0224
X7.7463Y-5.3723
X7.9963Y-5.2723
X9.4338Y-6.1224
X9.6838Y-6.0224
X4.9338Y-7.6223
X5.1838Y-7.5223
X8.4963Y-5.3723
X8.7463Y-5.2723
X10.5588Y-6.8723
X10.8088Y-6.7723
X3.1526Y-6.1224
X3.4026Y-6.0224
X8.3088Y-6.8723
X8.5588Y-6.7723
X11.4963Y-5.3723
X11.7463Y-5.2723
X6.6213Y-4.6223
X6.8713Y-4.5223
X10.7463Y-5.3723
X10.9963Y-5.2723
X12.9025Y-6.1224
X13.1525Y-6.0224
X3.7151Y-6.8723
X3.9651Y-6.7723
X6.9963Y-5.3723
X7.2463Y-5.2723
X9.9963Y-5.3723
X10.2463Y-5.2723
X4.5588Y-6.8723
X4.8088Y-6.7723
X11.4026Y-7.6223
X11.6526Y-7.5223
X13.1838Y-5.3723
X13.4338Y-5.2723
X5.6838Y-6.1224
X5.9338Y-6.0224
X7.6526Y-7.6223
X7.9026Y-7.5223
X9.6213Y-4.6223
X9.8713Y-4.5223
X2.8713Y-4.6223
X3.1213Y-4.5223
X12.6213Y-4.6223
X12.8713Y-4.5223
X4.9348Y-6.1224
X5.1848Y-6.0224
X6.8088Y-6.8723
X7.0588Y-6.7723
X9.8088Y-6.8723
X10.0588Y-6.7723
X3.9963Y-5.3723
X4.2463Y-5.2723
X12.34Y-6.8723
X12.59Y-6.7723
X7.1838Y-6.1224
X7.4338Y-6.0224
X13.3713Y-6.8723
X13.6213Y-6.7723
X8.6838Y-6.1224
X8.9338Y-6.0224
X10.465Y-7.6223
X10.715Y-7.5223
X2.8713Y-6.8723
X3.1213Y-6.7723
X5.1213Y-4.6223
X5.3713Y-4.5223
X6.2463Y-5.3723
X6.4963Y-5.2723
X10.9338Y-6.1224
X11.1838Y-6.0224
X4.09Y-7.6223
X4.34Y-7.5223
X5.8713Y-4.6223
X6.1213Y-4.5223
X8.8713Y-4.6223
X9.1213Y-4.5223
X10.1838Y-6.1224
X10.4338Y-6.0224
X11.6838Y-6.1224
X11.9338Y-6.0224
X11.8713Y-4.6223
X12.1213Y-4.5223
X6.0588Y-6.8723
X6.3088Y-6.7723
X8.1213Y-4.6223
X8.3713Y-4.5223
X9.2463Y-5.3723
X9.4963Y-5.2723
X5.3088Y-6.8723
X5.5588Y-6.7723
X7.9338Y-6.1224
X8.1838Y-6.0224
T5
X3.6033Y-5.1586
T4
G00X7.6112Y-5.9105
M15
G01X7.7097Y-5.9105
M16
G05
G00X12.8001Y-5.1586
M15
G01X12.8986Y-5.1586
M16
G05
G00X10.0619Y-7.4145
M15
G01X10.1604Y-7.4145
M16
G05
T0
M30
