M48
; DRILL file {KiCad (5.1.2-1)-1} date 2020年06月06日 星期六 11:17:54
; FORMAT={-:-/ absolute / inch / decimal}
; #@! TF.CreationDate,2020-06-06T23:17:54+08:00
; #@! TF.GenerationSoftware,Kicad,Pcbnew,(5.1.2-1)-1
; #@! TF.FileFunction,NonPlated,1,2,NPTH
FMAT,2
INCH
T1C0.0354
T2C0.0669
T3C0.1567
%
G90
G05
T1
X3.2411Y-4.2125
X3.4143Y-4.2125
T2
X12.1462Y-7.4223
X12.5462Y-7.4223
X4.6463Y-5.1723
X5.0463Y-5.1723
X6.3338Y-5.9224
X6.7338Y-5.9224
X7.6463Y-5.1723
X8.0463Y-5.1723
X9.3338Y-5.9224
X9.7338Y-5.9224
X4.8338Y-7.4223
X5.2338Y-7.4223
X8.3963Y-5.1723
X8.7963Y-5.1723
X10.4588Y-6.6723
X10.8588Y-6.6723
X3.0526Y-5.9224
X3.4526Y-5.9224
X8.2088Y-6.6723
X8.6088Y-6.6723
X11.3963Y-5.1723
X11.7963Y-5.1723
X6.5213Y-4.4223
X6.9213Y-4.4223
X10.6463Y-5.1723
X11.0463Y-5.1723
X12.8025Y-5.9224
X13.2025Y-5.9224
X3.6151Y-6.6723
X4.0151Y-6.6723
X6.8963Y-5.1723
X7.2963Y-5.1723
X9.8963Y-5.1723
X10.2963Y-5.1723
X4.4588Y-6.6723
X4.8588Y-6.6723
X11.3026Y-7.4223
X11.7026Y-7.4223
X13.0838Y-5.1723
X13.4838Y-5.1723
X5.5838Y-5.9224
X5.9838Y-5.9224
X7.5526Y-7.4223
X7.9526Y-7.4223
X9.5213Y-4.4223
X9.9213Y-4.4223
X2.7713Y-4.4223
X3.1713Y-4.4223
X12.5213Y-4.4223
X12.9213Y-4.4223
X4.8348Y-5.9224
X5.2348Y-5.9224
X6.7088Y-6.6723
X7.1088Y-6.6723
X9.7088Y-6.6723
X10.1088Y-6.6723
X3.8963Y-5.1723
X4.2963Y-5.1723
X12.24Y-6.6723
X12.64Y-6.6723
X7.0838Y-5.9224
X7.4838Y-5.9224
X13.2713Y-6.6723
X13.6713Y-6.6723
X8.5838Y-5.9224
X8.9838Y-5.9224
X10.365Y-7.4223
X10.765Y-7.4223
X2.7713Y-6.6723
X3.1713Y-6.6723
X5.0213Y-4.4223
X5.4213Y-4.4223
X6.1463Y-5.1723
X6.5463Y-5.1723
X10.8338Y-5.9224
X11.2338Y-5.9224
X3.99Y-7.4223
X4.39Y-7.4223
X5.7713Y-4.4223
X6.1713Y-4.4223
X8.7713Y-4.4223
X9.1713Y-4.4223
X10.0838Y-5.9224
X10.4838Y-5.9224
X11.5838Y-5.9224
X11.9838Y-5.9224
X11.7713Y-4.4223
X12.1713Y-4.4223
X5.9588Y-6.6723
X6.3588Y-6.6723
X8.0213Y-4.4223
X8.4213Y-4.4223
X9.1463Y-5.1723
X9.5463Y-5.1723
X5.2088Y-6.6723
X5.6088Y-6.6723
X7.8338Y-5.9224
X8.2338Y-5.9224
X12.1463Y-5.1723
X12.5463Y-5.1723
X3.5213Y-4.4223
X3.9213Y-4.4223
X7.2713Y-4.4223
X7.6713Y-4.4223
X2.9588Y-5.1723
X3.3588Y-5.1723
X10.2713Y-4.4223
X10.6713Y-4.4223
X4.0838Y-5.9224
X4.4838Y-5.9224
X13.2713Y-4.4223
X13.6713Y-4.4223
X8.9588Y-6.6723
X9.3588Y-6.6723
X11.0213Y-4.4223
X11.4213Y-4.4223
X11.2088Y-6.6723
X11.6088Y-6.6723
X4.2713Y-4.4223
X4.6713Y-4.4223
X5.3963Y-5.1723
X5.7963Y-5.1723
X7.4588Y-6.6723
X7.8588Y-6.6723
T3
X7.2838Y-5.9224
X13.4713Y-6.6723
X8.7838Y-5.9224
X10.565Y-7.4223
X2.9713Y-6.6723
X5.2213Y-4.4223
X6.3463Y-5.1723
X11.0338Y-5.9224
X4.19Y-7.4223
X5.9713Y-4.4223
X8.9713Y-4.4223
X10.2838Y-5.9224
X11.7838Y-5.9224
X11.9713Y-4.4223
X6.1588Y-6.6723
X8.2213Y-4.4223
X9.3463Y-5.1723
X5.4088Y-6.6723
X8.0338Y-5.9224
X12.3463Y-5.1723
X3.7213Y-4.4223
X7.4713Y-4.4223
X3.1588Y-5.1723
X10.4713Y-4.4223
X4.2838Y-5.9224
X13.4713Y-4.4223
X9.1588Y-6.6723
X11.2213Y-4.4223
X11.4088Y-6.6723
X4.4713Y-4.4223
X5.5963Y-5.1723
X7.6588Y-6.6723
X12.3462Y-7.4223
X4.8463Y-5.1723
X6.5338Y-5.9224
X7.8463Y-5.1723
X9.5338Y-5.9224
X5.0338Y-7.4223
X8.5963Y-5.1723
X10.6588Y-6.6723
X3.2526Y-5.9224
X8.4088Y-6.6723
X11.5963Y-5.1723
X6.7213Y-4.4223
X10.8463Y-5.1723
X13.0025Y-5.9224
X3.8151Y-6.6723
X7.0963Y-5.1723
X10.0963Y-5.1723
X4.6588Y-6.6723
X11.5026Y-7.4223
X13.2838Y-5.1723
X5.7838Y-5.9224
X7.7526Y-7.4223
X9.7213Y-4.4223
X2.9713Y-4.4223
X12.7213Y-4.4223
X5.0348Y-5.9224
X6.9088Y-6.6723
X9.9088Y-6.6723
X4.0963Y-5.1723
X12.44Y-6.6723
T0
M30
