  0
SECTION
  2
HEADER
  9
$ACADVER
  1
AC1009
  9
$INSBASE
 10
0.0
 20
0.0
 30
0.0
  9
$EXTMIN
 10
0.0
 20
0.0
 30
0.0
  9
$EXTMAX
 10
0.0
 20
0.0
 30
0.0
  0
ENDSEC
  0
SECTION
  2
TABLES
  0
TABLE
  2
VPORT
 70
0
  0
ENDTAB
  0
TABLE
  2
LTYPE
 70
1
  0
LTYPE
  2
CONTINUOUS
 70
0
  3
Solid line
 72
65
 73
0
 40
0.0
  0
ENDTAB
  0
TABLE
  2
LAYER
 70
1
  0
LAYER
  2
0
 70
64
 62
7
  6
continuous
  0
ENDTAB
  0
TABLE
  2
STYLE
 70
1
  0
STYLE
  2
STANDARD
 70
0
 40
0
 41
1.0
 50
0.0
 71
0
 42
1
 3
ARIAL.TTF
 4

  0
ENDTAB
  0
TABLE
  2
VIEW
 70
0
  0
ENDTAB
  0
ENDSEC
  0
SECTION
  2
BLOCKS
  0
ENDSEC
  0
SECTION
  2
ENTITIES
  0
LINE
  8
0
 62
0
 10
285.469
 20
40.9924
 30
0.0
 11
281.969
 21
40.9924
 31
0.0
  0
POLYLINE
  8
0
 62
0
 70
0
 66
1
 10
0.0
 20
0.0
 30
0.0
  0
VERTEX
  8
0
 10
125.969
 20
45.1915
 30
0.0
  0
VERTEX
  8
0
 10
131.018
 20
45.1915
 30
0.0
  0
SEQEND
  8
0
  0
POLYLINE
  8
0
 62
0
 70
0
 66
1
 10
0.0
 20
0.0
 30
0.0
  0
VERTEX
  8
0
 10
125.969
 20
50.190799999999996
 30
0.0
  0
VERTEX
  8
0
 10
131.018
 20
50.190799999999996
 30
0.0
  0
SEQEND
  8
0
  0
POLYLINE
  8
0
 62
0
 70
0
 66
1
 10
0.0
 20
0.0
 30
0.0
  0
VERTEX
  8
0
 10
131.018
 20
40.69220000000001
 30
0.0
  0
VERTEX
  8
0
 10
131.018
 20
45.191500000000005
 30
0.0
  0
SEQEND
  8
0
  0
POLYLINE
  8
0
 62
0
 70
0
 66
1
 10
0.0
 20
0.0
 30
0.0
  0
VERTEX
  8
0
 10
125.969
 20
40.69220000000001
 30
0.0
  0
VERTEX
  8
0
 10
125.969
 20
45.191500000000005
 30
0.0
  0
SEQEND
  8
0
  0
ARC
  8
0
 62
0
 10
3.594610000000004
 20
38.49265
 30
0.0
 40
2.499750095229527
 50
-0.0
 51
90.0158152162708
  0
POLYLINE
  8
0
 62
0
 70
0
 66
1
 10
0.0
 20
0.0
 30
0.0
  0
VERTEX
  8
0
 10
6.094360095229534
 20
38.49264999998712
 30
0.0
  0
VERTEX
  8
0
 10
6.094360095229535
 20
35.6429
 30
0.0
  0
SEQEND
  8
0
  0
POLYLINE
  8
0
 62
0
 70
0
 66
1
 10
0.0
 20
0.0
 30
0.0
  0
VERTEX
  8
0
 10
279.46925
 20
38.49265000000008
 30
0.0
  0
VERTEX
  8
0
 10
279.46925
 20
35.64290000000001
 30
0.0
  0
SEQEND
  8
0
  0
ARC
  8
0
 62
0
 10
281.969
 20
38.49265000000008
 30
0.0
 40
2.499749999999935
 50
90.0
 51
-180.0
  0
CIRCLE
  8
0
 62
0
 10
260.332
 20
67.09130000000006
 30
0.0
 40
2.501199999999969
  0
CIRCLE
  8
0
 62
0
 10
25.48270000000001
 20
67.092
 30
0.0
 40
2.5005000000000024
  0
POLYLINE
  8
0
 62
0
 70
0
 66
1
 10
0.0
 20
0.0
 30
0.0
  0
VERTEX
  8
0
 10
190.781
 20
12.292100000000024
 30
0.0
  0
VERTEX
  8
0
 10
192.931
 20
12.292100000000037
 30
0.0
  0
SEQEND
  8
0
  0
POLYLINE
  8
0
 62
0
 70
0
 66
1
 10
0.0
 20
0.0
 30
0.0
  0
VERTEX
  8
0
 10
190.781
 20
7.292590000000048
 30
0.0
  0
VERTEX
  8
0
 10
192.931
 20
7.29259000000006
 30
0.0
  0
SEQEND
  8
0
  0
ARC
  8
0
 62
0
 10
190.781
 20
9.792345000000036
 30
0.0
 40
2.499754999999988
 50
90.0
 51
-90.0
  0
POLYLINE
  8
0
 62
0
 70
0
 66
1
 10
0.0
 20
0.0
 30
0.0
  0
VERTEX
  8
0
 10
283.13
 20
35.9929
 30
0.0
  0
VERTEX
  8
0
 10
285.469
 20
35.9929
 30
0.0
  0
SEQEND
  8
0
  0
LINE
  8
0
 62
0
 10
285.469
 20
35.9929
 30
0.0
 11
285.469
 21
0.228755
 31
0.0
  0
LINE
  8
0
 62
0
 10
285.469
 20
0.228755
 30
0.0
 11
0.0950846
 21
0.228755
 31
0.0
  0
LINE
  8
0
 62
0
 10
0.0950846
 20
0.228755
 30
0.0
 11
0.0950846
 21
35.9929
 31
0.0
  0
POLYLINE
  8
0
 62
0
 70
0
 66
1
 10
0.0
 20
0.0
 30
0.0
  0
VERTEX
  8
0
 10
2.43086
 20
35.9929
 30
0.0
  0
VERTEX
  8
0
 10
0.0950846
 20
35.9929
 30
0.0
  0
SEQEND
  8
0
  0
LINE
  8
0
 62
0
 10
3.5953
 20
40.9924
 30
0.0
 11
0.0950846
 21
40.9924
 31
0.0
  0
LINE
  8
0
 62
0
 10
0.0950846
 20
40.9924
 30
0.0
 11
0.0950846
 21
95.1548
 31
0.0
  0
LINE
  8
0
 62
0
 10
0.0950846
 20
95.1548
 30
0.0
 11
285.469
 21
95.1548
 31
0.0
  0
LINE
  8
0
 62
0
 10
285.469
 20
95.1548
 30
0.0
 11
285.469
 21
40.9924
 31
0.0
  0
LINE
  8
0
 62
0
 10
129.64100000000002
 20
16.593
 30
0.0
 11
129.64100000000002
 21
11.8938
 31
0.0
  0
POLYLINE
  8
0
 62
0
 70
0
 66
1
 10
0.0
 20
0.0
 30
0.0
  0
VERTEX
  8
0
 10
129.64100000000002
 20
11.8938
 30
0.0
  0
VERTEX
  8
0
 10
89.1314
 20
11.8938
 30
0.0
  0
SEQEND
  8
0
  0
LINE
  8
0
 62
0
 10
89.1314
 20
11.8938
 30
0.0
 11
89.1314
 21
15.124
 31
0.0
  0
LINE
  8
0
 62
0
 10
89.1314
 20
15.124
 30
0.0
 11
82.3817
 21
15.124
 31
0.0
  0
LINE
  8
0
 62
0
 10
82.3817
 20
15.124
 30
0.0
 11
82.3817
 21
11.8938
 31
0.0
  0
LINE
  8
0
 62
0
 10
82.3817
 20
11.8938
 30
0.0
 11
81.5566
 21
11.8938
 31
0.0
  0
LINE
  8
0
 62
0
 10
81.5566
 20
11.8938
 30
0.0
 11
81.5566
 21
9.09366
 31
0.0
  0
LINE
  8
0
 62
0
 10
81.5566
 20
9.09366
 30
0.0
 11
82.3817
 21
9.09366
 31
0.0
  0
LINE
  8
0
 62
0
 10
82.3817
 20
9.09366
 30
0.0
 11
82.3817
 21
2.8236
 31
0.0
  0
LINE
  8
0
 62
0
 10
82.3817
 20
2.8236
 30
0.0
 11
84.1058
 21
2.8236
 31
0.0
  0
LINE
  8
0
 62
0
 10
84.1058
 20
2.8236
 30
0.0
 11
84.1058
 21
1.62333
 31
0.0
  0
LINE
  8
0
 62
0
 10
84.1058
 20
1.62333
 30
0.0
 11
87.4063
 21
1.62333
 31
0.0
  0
LINE
  8
0
 62
0
 10
87.4063
 20
1.62333
 30
0.0
 11
87.4063
 21
2.8236
 31
0.0
  0
LINE
  8
0
 62
0
 10
87.4063
 20
2.8236
 30
0.0
 11
89.1314
 21
2.8236
 31
0.0
  0
LINE
  8
0
 62
0
 10
89.1314
 20
2.8236
 30
0.0
 11
89.1314
 21
7.29396
 31
0.0
  0
POLYLINE
  8
0
 62
0
 70
0
 66
1
 10
0.0
 20
0.0
 30
0.0
  0
VERTEX
  8
0
 10
129.64100000000002
 20
7.29396
 30
0.0
  0
VERTEX
  8
0
 10
89.1314
 20
7.29396
 30
0.0
  0
SEQEND
  8
0
  0
LINE
  8
0
 62
0
 10
129.64100000000002
 20
7.29396
 30
0.0
 11
129.64100000000002
 21
2.59347
 31
0.0
  0
LINE
  8
0
 62
0
 10
129.64100000000002
 20
2.59347
 30
0.0
 11
143.64200000000002
 21
2.59347
 31
0.0
  0
LINE
  8
0
 62
0
 10
143.64200000000002
 20
2.59347
 30
0.0
 11
143.64200000000002
 21
7.29396
 31
0.0
  0
POLYLINE
  8
0
 62
0
 70
0
 66
1
 10
0.0
 20
0.0
 30
0.0
  0
VERTEX
  8
0
 10
143.64200000000002
 20
7.29396
 30
0.0
  0
VERTEX
  8
0
 10
177.381
 20
7.29396
 30
0.0
  0
SEQEND
  8
0
  0
LINE
  8
0
 62
0
 10
177.381
 20
7.29396
 30
0.0
 11
177.381
 21
2.8236
 31
0.0
  0
LINE
  8
0
 62
0
 10
177.381
 20
2.8236
 30
0.0
 11
179.106
 21
2.8236
 31
0.0
  0
LINE
  8
0
 62
0
 10
179.106
 20
2.8236
 30
0.0
 11
179.106
 21
1.62333
 31
0.0
  0
LINE
  8
0
 62
0
 10
179.106
 20
1.62333
 30
0.0
 11
182.407
 21
1.62333
 31
0.0
  0
LINE
  8
0
 62
0
 10
182.407
 20
1.62333
 30
0.0
 11
182.407
 21
2.8236
 31
0.0
  0
LINE
  8
0
 62
0
 10
182.407
 20
2.8236
 30
0.0
 11
184.132
 21
2.8236
 31
0.0
  0
LINE
  8
0
 62
0
 10
184.132
 20
2.8236
 30
0.0
 11
184.132
 21
9.09366
 31
0.0
  0
LINE
  8
0
 62
0
 10
184.132
 20
9.09366
 30
0.0
 11
184.956
 21
9.09366
 31
0.0
  0
LINE
  8
0
 62
0
 10
184.956
 20
9.09366
 30
0.0
 11
184.956
 21
11.8938
 31
0.0
  0
LINE
  8
0
 62
0
 10
184.956
 20
11.8938
 30
0.0
 11
184.132
 21
11.8938
 31
0.0
  0
LINE
  8
0
 62
0
 10
184.132
 20
11.8938
 30
0.0
 11
184.132
 21
15.124
 31
0.0
  0
LINE
  8
0
 62
0
 10
184.132
 20
15.124
 30
0.0
 11
177.381
 21
15.124
 31
0.0
  0
LINE
  8
0
 62
0
 10
177.381
 20
15.124
 30
0.0
 11
177.381
 21
11.8938
 31
0.0
  0
POLYLINE
  8
0
 62
0
 70
0
 66
1
 10
0.0
 20
0.0
 30
0.0
  0
VERTEX
  8
0
 10
143.64200000000002
 20
11.8938
 30
0.0
  0
VERTEX
  8
0
 10
177.381
 20
11.8938
 30
0.0
  0
SEQEND
  8
0
  0
LINE
  8
0
 62
0
 10
143.64200000000002
 20
11.8938
 30
0.0
 11
143.64200000000002
 21
16.593
 31
0.0
  0
LINE
  8
0
 62
0
 10
143.64200000000002
 20
16.593
 30
0.0
 11
129.64100000000002
 21
16.593
 31
0.0
  0
LINE
  8
0
 62
0
 10
238.175
 20
16.593
 30
0.0
 11
252.174
 21
16.593
 31
0.0
  0
LINE
  8
0
 62
0
 10
252.174
 20
16.593
 30
0.0
 11
252.174
 21
2.59347
 31
0.0
  0
LINE
  8
0
 62
0
 10
252.174
 20
2.59347
 30
0.0
 11
238.175
 21
2.59347
 31
0.0
  0
LINE
  8
0
 62
0
 10
238.175
 20
2.59347
 30
0.0
 11
238.175
 21
16.593
 31
0.0
  0
LINE
  8
0
 62
0
 10
214.362
 20
16.593
 30
0.0
 11
228.363
 21
16.593
 31
0.0
  0
LINE
  8
0
 62
0
 10
228.363
 20
16.593
 30
0.0
 11
228.363
 21
2.59347
 31
0.0
  0
LINE
  8
0
 62
0
 10
228.363
 20
2.59347
 30
0.0
 11
214.362
 21
2.59347
 31
0.0
  0
LINE
  8
0
 62
0
 10
214.362
 20
2.59347
 30
0.0
 11
214.362
 21
16.593
 31
0.0
  0
POLYLINE
  8
0
 62
0
 70
0
 66
1
 10
0.0
 20
0.0
 30
0.0
  0
VERTEX
  8
0
 10
192.931
 20
12.292100000000037
 30
0.0
  0
VERTEX
  8
0
 10
192.931
 20
16.593
 30
0.0
  0
SEQEND
  8
0
  0
POLYLINE
  8
0
 62
0
 70
0
 66
1
 10
0.0
 20
0.0
 30
0.0
  0
VERTEX
  8
0
 10
192.931
 20
7.292590000000059
 30
0.0
  0
VERTEX
  8
0
 10
192.931
 20
2.59347
 30
0.0
  0
SEQEND
  8
0
  0
LINE
  8
0
 62
0
 10
192.931
 20
2.59347
 30
0.0
 11
206.93
 21
2.59347
 31
0.0
  0
LINE
  8
0
 62
0
 10
206.93
 20
2.59347
 30
0.0
 11
206.93
 21
16.593
 31
0.0
  0
LINE
  8
0
 62
0
 10
206.93
 20
16.593
 30
0.0
 11
192.931
 21
16.593
 31
0.0
  0
LINE
  8
0
 62
0
 10
57.1997
 20
16.593
 30
0.0
 11
71.199
 21
16.593
 31
0.0
  0
LINE
  8
0
 62
0
 10
71.199
 20
16.593
 30
0.0
 11
71.199
 21
2.59347
 31
0.0
  0
LINE
  8
0
 62
0
 10
71.199
 20
2.59347
 30
0.0
 11
57.1997
 21
2.59347
 31
0.0
  0
LINE
  8
0
 62
0
 10
57.1997
 20
2.59347
 30
0.0
 11
57.1997
 21
16.593
 31
0.0
  0
LINE
  8
0
 62
0
 10
33.3871
 20
16.593
 30
0.0
 11
47.3865
 21
16.593
 31
0.0
  0
LINE
  8
0
 62
0
 10
47.3865
 20
16.593
 30
0.0
 11
47.3865
 21
2.59347
 31
0.0
  0
LINE
  8
0
 62
0
 10
47.3865
 20
2.59347
 30
0.0
 11
33.3871
 21
2.59347
 31
0.0
  0
LINE
  8
0
 62
0
 10
33.3871
 20
2.59347
 30
0.0
 11
33.3871
 21
16.593
 31
0.0
  0
POLYLINE
  8
0
 62
0
 70
0
 66
1
 10
0.0
 20
0.0
 30
0.0
  0
VERTEX
  8
0
 10
279.46925
 20
35.6429
 30
0.0
  0
VERTEX
  8
0
 10
269.131
 20
35.6429
 30
0.0
  0
SEQEND
  8
0
  0
POLYLINE
  8
0
 62
0
 70
0
 66
1
 10
0.0
 20
0.0
 30
0.0
  0
VERTEX
  8
0
 10
283.13
 20
35.9929
 30
0.0
  0
VERTEX
  8
0
 10
283.13
 20
21.6435
 30
0.0
  0
SEQEND
  8
0
  0
LINE
  8
0
 62
0
 10
283.13
 20
21.6435
 30
0.0
 11
269.131
 21
21.6435
 31
0.0
  0
LINE
  8
0
 62
0
 10
269.131
 20
21.6435
 30
0.0
 11
269.131
 21
35.6429
 31
0.0
  0
LINE
  8
0
 62
0
 10
242.937
 20
35.6429
 30
0.0
 11
256.937
 21
35.6429
 31
0.0
  0
LINE
  8
0
 62
0
 10
256.937
 20
35.6429
 30
0.0
 11
256.937
 21
21.6435
 31
0.0
  0
LINE
  8
0
 62
0
 10
256.937
 20
21.6435
 30
0.0
 11
242.937
 21
21.6435
 31
0.0
  0
LINE
  8
0
 62
0
 10
242.937
 20
21.6435
 30
0.0
 11
242.937
 21
35.6429
 31
0.0
  0
LINE
  8
0
 62
0
 10
216.745
 20
35.6429
 30
0.0
 11
230.744
 21
35.6429
 31
0.0
  0
LINE
  8
0
 62
0
 10
230.744
 20
35.6429
 30
0.0
 11
230.744
 21
21.6435
 31
0.0
  0
LINE
  8
0
 62
0
 10
230.744
 20
21.6435
 30
0.0
 11
216.745
 21
21.6435
 31
0.0
  0
LINE
  8
0
 62
0
 10
216.745
 20
21.6435
 30
0.0
 11
216.745
 21
35.6429
 31
0.0
  0
LINE
  8
0
 62
0
 10
197.693
 20
35.6429
 30
0.0
 11
211.693
 21
35.6429
 31
0.0
  0
LINE
  8
0
 62
0
 10
211.693
 20
35.6429
 30
0.0
 11
211.693
 21
21.6435
 31
0.0
  0
LINE
  8
0
 62
0
 10
211.693
 20
21.6435
 30
0.0
 11
197.693
 21
21.6435
 31
0.0
  0
LINE
  8
0
 62
0
 10
197.693
 20
21.6435
 30
0.0
 11
197.693
 21
35.6429
 31
0.0
  0
LINE
  8
0
 62
0
 10
178.645
 20
35.6429
 30
0.0
 11
192.644
 21
35.6429
 31
0.0
  0
LINE
  8
0
 62
0
 10
192.644
 20
35.6429
 30
0.0
 11
192.644
 21
21.6435
 31
0.0
  0
LINE
  8
0
 62
0
 10
192.644
 20
21.6435
 30
0.0
 11
178.645
 21
21.6435
 31
0.0
  0
LINE
  8
0
 62
0
 10
178.645
 20
21.6435
 30
0.0
 11
178.645
 21
35.6429
 31
0.0
  0
LINE
  8
0
 62
0
 10
159.595
 20
35.6429
 30
0.0
 11
173.594
 21
35.6429
 31
0.0
  0
LINE
  8
0
 62
0
 10
173.594
 20
35.6429
 30
0.0
 11
173.594
 21
21.6435
 31
0.0
  0
LINE
  8
0
 62
0
 10
173.594
 20
21.6435
 30
0.0
 11
159.595
 21
21.6435
 31
0.0
  0
LINE
  8
0
 62
0
 10
159.595
 20
21.6435
 30
0.0
 11
159.595
 21
35.6429
 31
0.0
  0
LINE
  8
0
 62
0
 10
140.543
 20
35.6429
 30
0.0
 11
154.543
 21
35.6429
 31
0.0
  0
LINE
  8
0
 62
0
 10
154.543
 20
35.6429
 30
0.0
 11
154.543
 21
21.6435
 31
0.0
  0
LINE
  8
0
 62
0
 10
154.543
 20
21.6435
 30
0.0
 11
140.543
 21
21.6435
 31
0.0
  0
LINE
  8
0
 62
0
 10
140.543
 20
21.6435
 30
0.0
 11
140.543
 21
35.6429
 31
0.0
  0
LINE
  8
0
 62
0
 10
121.495
 20
35.6429
 30
0.0
 11
135.494
 21
35.6429
 31
0.0
  0
LINE
  8
0
 62
0
 10
135.494
 20
35.6429
 30
0.0
 11
135.494
 21
21.6435
 31
0.0
  0
LINE
  8
0
 62
0
 10
135.494
 20
21.6435
 30
0.0
 11
121.495
 21
21.6435
 31
0.0
  0
LINE
  8
0
 62
0
 10
121.495
 20
21.6435
 30
0.0
 11
121.495
 21
35.6429
 31
0.0
  0
LINE
  8
0
 62
0
 10
102.443
 20
35.6429
 30
0.0
 11
116.443
 21
35.6429
 31
0.0
  0
LINE
  8
0
 62
0
 10
116.443
 20
35.6429
 30
0.0
 11
116.443
 21
21.6435
 31
0.0
  0
LINE
  8
0
 62
0
 10
116.443
 20
21.6435
 30
0.0
 11
102.443
 21
21.6435
 31
0.0
  0
LINE
  8
0
 62
0
 10
102.443
 20
21.6435
 30
0.0
 11
102.443
 21
35.6429
 31
0.0
  0
LINE
  8
0
 62
0
 10
83.3949
 20
35.6429
 30
0.0
 11
97.3942
 21
35.6429
 31
0.0
  0
LINE
  8
0
 62
0
 10
97.3942
 20
35.6429
 30
0.0
 11
97.3942
 21
21.6435
 31
0.0
  0
LINE
  8
0
 62
0
 10
97.3942
 20
21.6435
 30
0.0
 11
83.3949
 21
21.6435
 31
0.0
  0
LINE
  8
0
 62
0
 10
83.3949
 20
21.6435
 30
0.0
 11
83.3949
 21
35.6429
 31
0.0
  0
LINE
  8
0
 62
0
 10
64.3449
 20
35.6429
 30
0.0
 11
78.3442
 21
35.6429
 31
0.0
  0
LINE
  8
0
 62
0
 10
78.3442
 20
35.6429
 30
0.0
 11
78.3442
 21
21.6435
 31
0.0
  0
LINE
  8
0
 62
0
 10
78.3442
 20
21.6435
 30
0.0
 11
64.3449
 21
21.6435
 31
0.0
  0
LINE
  8
0
 62
0
 10
64.3449
 20
21.6435
 30
0.0
 11
64.3449
 21
35.6429
 31
0.0
  0
LINE
  8
0
 62
0
 10
45.2935
 20
35.6429
 30
0.0
 11
59.2928
 21
35.6429
 31
0.0
  0
LINE
  8
0
 62
0
 10
59.2928
 20
35.6429
 30
0.0
 11
59.2928
 21
21.6435
 31
0.0
  0
LINE
  8
0
 62
0
 10
59.2928
 20
21.6435
 30
0.0
 11
45.2935
 21
21.6435
 31
0.0
  0
LINE
  8
0
 62
0
 10
45.2935
 20
21.6435
 30
0.0
 11
45.2935
 21
35.6429
 31
0.0
  0
LINE
  8
0
 62
0
 10
23.8621
 20
35.6429
 30
0.0
 11
37.8629
 21
35.6429
 31
0.0
  0
LINE
  8
0
 62
0
 10
37.8629
 20
35.6429
 30
0.0
 11
37.8629
 21
21.6435
 31
0.0
  0
LINE
  8
0
 62
0
 10
37.8629
 20
21.6435
 30
0.0
 11
23.8621
 21
21.6435
 31
0.0
  0
LINE
  8
0
 62
0
 10
23.8621
 20
21.6435
 30
0.0
 11
23.8621
 21
35.6429
 31
0.0
  0
POLYLINE
  8
0
 62
0
 70
0
 66
1
 10
0.0
 20
0.0
 30
0.0
  0
VERTEX
  8
0
 10
6.094360095229536
 20
35.6429
 30
0.0
  0
VERTEX
  8
0
 10
16.4317
 20
35.6429
 30
0.0
  0
SEQEND
  8
0
  0
LINE
  8
0
 62
0
 10
16.4317
 20
35.6429
 30
0.0
 11
16.4317
 21
21.6435
 31
0.0
  0
LINE
  8
0
 62
0
 10
16.4317
 20
21.6435
 30
0.0
 11
2.43086
 21
21.6435
 31
0.0
  0
POLYLINE
  8
0
 62
0
 70
0
 66
1
 10
0.0
 20
0.0
 30
0.0
  0
VERTEX
  8
0
 10
2.43086
 20
35.9929
 30
0.0
  0
VERTEX
  8
0
 10
2.43086
 20
21.6435
 30
0.0
  0
SEQEND
  8
0
  0
LINE
  8
0
 62
0
 10
257.223
 20
54.6929
 30
0.0
 11
257.223
 21
49.9939
 31
0.0
  0
LINE
  8
0
 62
0
 10
257.223
 20
49.9939
 30
0.0
 11
255.699
 21
49.9939
 31
0.0
  0
LINE
  8
0
 62
0
 10
255.699
 20
49.9939
 30
0.0
 11
255.699
 21
53.2225
 31
0.0
  0
LINE
  8
0
 62
0
 10
255.699
 20
53.2225
 30
0.0
 11
248.95
 21
53.2225
 31
0.0
  0
LINE
  8
0
 62
0
 10
248.95
 20
53.2225
 30
0.0
 11
248.95
 21
49.9939
 31
0.0
  0
LINE
  8
0
 62
0
 10
248.95
 20
49.9939
 30
0.0
 11
248.126
 21
49.9939
 31
0.0
  0
LINE
  8
0
 62
0
 10
248.126
 20
49.9939
 30
0.0
 11
248.126
 21
47.1921
 31
0.0
  0
LINE
  8
0
 62
0
 10
248.126
 20
47.1921
 30
0.0
 11
248.95
 21
47.1921
 31
0.0
  0
LINE
  8
0
 62
0
 10
248.95
 20
47.1921
 30
0.0
 11
248.95
 21
40.9236
 31
0.0
  0
LINE
  8
0
 62
0
 10
248.95
 20
40.9236
 30
0.0
 11
250.675
 21
40.9236
 31
0.0
  0
LINE
  8
0
 62
0
 10
250.675
 20
40.9236
 30
0.0
 11
250.675
 21
39.7221
 31
0.0
  0
LINE
  8
0
 62
0
 10
250.675
 20
39.7221
 30
0.0
 11
253.974
 21
39.7221
 31
0.0
  0
LINE
  8
0
 62
0
 10
253.974
 20
39.7221
 30
0.0
 11
253.974
 21
40.9236
 31
0.0
  0
LINE
  8
0
 62
0
 10
253.974
 20
40.9236
 30
0.0
 11
255.699
 21
40.9236
 31
0.0
  0
LINE
  8
0
 62
0
 10
255.699
 20
40.9236
 30
0.0
 11
255.699
 21
45.394
 31
0.0
  0
LINE
  8
0
 62
0
 10
255.699
 20
45.394
 30
0.0
 11
257.223
 21
45.394
 31
0.0
  0
LINE
  8
0
 62
0
 10
257.223
 20
45.394
 30
0.0
 11
257.223
 21
40.6922
 31
0.0
  0
LINE
  8
0
 62
0
 10
257.223
 20
40.6922
 30
0.0
 11
271.224
 21
40.6922
 31
0.0
  0
LINE
  8
0
 62
0
 10
271.224
 20
40.6922
 30
0.0
 11
271.224
 21
45.394
 31
0.0
  0
LINE
  8
0
 62
0
 10
271.224
 20
45.394
 30
0.0
 11
272.749
 21
45.394
 31
0.0
  0
LINE
  8
0
 62
0
 10
272.749
 20
45.394
 30
0.0
 11
272.749
 21
40.9236
 31
0.0
  0
LINE
  8
0
 62
0
 10
272.749
 20
40.9236
 30
0.0
 11
274.475
 21
40.9236
 31
0.0
  0
LINE
  8
0
 62
0
 10
274.475
 20
40.9236
 30
0.0
 11
274.475
 21
39.7221
 31
0.0
  0
LINE
  8
0
 62
0
 10
274.475
 20
39.7221
 30
0.0
 11
277.774
 21
39.7221
 31
0.0
  0
LINE
  8
0
 62
0
 10
277.774
 20
39.7221
 30
0.0
 11
277.774
 21
40.9236
 31
0.0
  0
LINE
  8
0
 62
0
 10
277.774
 20
40.9236
 30
0.0
 11
279.499
 21
40.9236
 31
0.0
  0
LINE
  8
0
 62
0
 10
279.499
 20
40.9236
 30
0.0
 11
279.499
 21
47.1921
 31
0.0
  0
LINE
  8
0
 62
0
 10
279.499
 20
47.1921
 30
0.0
 11
280.325
 21
47.1921
 31
0.0
  0
LINE
  8
0
 62
0
 10
280.325
 20
47.1921
 30
0.0
 11
280.325
 21
49.9939
 31
0.0
  0
LINE
  8
0
 62
0
 10
280.325
 20
49.9939
 30
0.0
 11
279.499
 21
49.9939
 31
0.0
  0
LINE
  8
0
 62
0
 10
279.499
 20
49.9939
 30
0.0
 11
279.499
 21
53.2225
 31
0.0
  0
LINE
  8
0
 62
0
 10
279.499
 20
53.2225
 30
0.0
 11
272.749
 21
53.2225
 31
0.0
  0
LINE
  8
0
 62
0
 10
272.749
 20
53.2225
 30
0.0
 11
272.749
 21
49.9939
 31
0.0
  0
LINE
  8
0
 62
0
 10
272.749
 20
49.9939
 30
0.0
 11
271.224
 21
49.9939
 31
0.0
  0
LINE
  8
0
 62
0
 10
271.224
 20
49.9939
 30
0.0
 11
271.224
 21
54.6929
 31
0.0
  0
LINE
  8
0
 62
0
 10
271.224
 20
54.6929
 30
0.0
 11
257.223
 21
54.6929
 31
0.0
  0
LINE
  8
0
 62
0
 10
226.27
 20
54.6929
 30
0.0
 11
240.269
 21
54.6929
 31
0.0
  0
LINE
  8
0
 62
0
 10
240.269
 20
54.6929
 30
0.0
 11
240.269
 21
40.6922
 31
0.0
  0
LINE
  8
0
 62
0
 10
240.269
 20
40.6922
 30
0.0
 11
226.27
 21
40.6922
 31
0.0
  0
LINE
  8
0
 62
0
 10
226.27
 20
40.6922
 30
0.0
 11
226.27
 21
54.6929
 31
0.0
  0
LINE
  8
0
 62
0
 10
207.22
 20
54.6929
 30
0.0
 11
221.219
 21
54.6929
 31
0.0
  0
LINE
  8
0
 62
0
 10
221.219
 20
54.6929
 30
0.0
 11
221.219
 21
40.6922
 31
0.0
  0
LINE
  8
0
 62
0
 10
221.219
 20
40.6922
 30
0.0
 11
207.22
 21
40.6922
 31
0.0
  0
LINE
  8
0
 62
0
 10
207.22
 20
40.6922
 30
0.0
 11
207.22
 21
54.6929
 31
0.0
  0
LINE
  8
0
 62
0
 10
188.168
 20
54.6929
 30
0.0
 11
202.168
 21
54.6929
 31
0.0
  0
LINE
  8
0
 62
0
 10
202.168
 20
54.6929
 30
0.0
 11
202.168
 21
40.6922
 31
0.0
  0
LINE
  8
0
 62
0
 10
202.168
 20
40.6922
 30
0.0
 11
188.168
 21
40.6922
 31
0.0
  0
LINE
  8
0
 62
0
 10
188.168
 20
40.6922
 30
0.0
 11
188.168
 21
54.6929
 31
0.0
  0
LINE
  8
0
 62
0
 10
169.12
 20
54.6929
 30
0.0
 11
183.119
 21
54.6929
 31
0.0
  0
LINE
  8
0
 62
0
 10
183.119
 20
54.6929
 30
0.0
 11
183.119
 21
40.6922
 31
0.0
  0
LINE
  8
0
 62
0
 10
183.119
 20
40.6922
 30
0.0
 11
169.12
 21
40.6922
 31
0.0
  0
LINE
  8
0
 62
0
 10
169.12
 20
40.6922
 30
0.0
 11
169.12
 21
54.6929
 31
0.0
  0
LINE
  8
0
 62
0
 10
150.068
 20
54.6929
 30
0.0
 11
164.068
 21
54.6929
 31
0.0
  0
LINE
  8
0
 62
0
 10
164.068
 20
54.6929
 30
0.0
 11
164.068
 21
40.6922
 31
0.0
  0
LINE
  8
0
 62
0
 10
164.068
 20
40.6922
 30
0.0
 11
150.068
 21
40.6922
 31
0.0
  0
LINE
  8
0
 62
0
 10
150.068
 20
40.6922
 30
0.0
 11
150.068
 21
54.6929
 31
0.0
  0
LINE
  8
0
 62
0
 10
131.018
 20
54.6929
 30
0.0
 11
145.018
 21
54.6929
 31
0.0
  0
LINE
  8
0
 62
0
 10
145.018
 20
54.6929
 30
0.0
 11
145.018
 21
40.6922
 31
0.0
  0
LINE
  8
0
 62
0
 10
145.018
 20
40.6922
 30
0.0
 11
131.018
 21
40.6922
 31
0.0
  0
POLYLINE
  8
0
 62
0
 70
0
 66
1
 10
0.0
 20
0.0
 30
0.0
  0
VERTEX
  8
0
 10
131.018
 20
50.190799999999996
 30
0.0
  0
VERTEX
  8
0
 10
131.018
 20
54.6929
 30
0.0
  0
SEQEND
  8
0
  0
LINE
  8
0
 62
0
 10
111.967
 20
54.6929
 30
0.0
 11
125.969
 21
54.6929
 31
0.0
  0
POLYLINE
  8
0
 62
0
 70
0
 66
1
 10
0.0
 20
0.0
 30
0.0
  0
VERTEX
  8
0
 10
125.969
 20
50.190799999999996
 30
0.0
  0
VERTEX
  8
0
 10
125.969
 20
54.6929
 30
0.0
  0
SEQEND
  8
0
  0
LINE
  8
0
 62
0
 10
125.969
 20
40.6922
 30
0.0
 11
111.967
 21
40.6922
 31
0.0
  0
LINE
  8
0
 62
0
 10
111.967
 20
40.6922
 30
0.0
 11
111.967
 21
54.6929
 31
0.0
  0
LINE
  8
0
 62
0
 10
92.9185
 20
54.6929
 30
0.0
 11
106.918
 21
54.6929
 31
0.0
  0
LINE
  8
0
 62
0
 10
106.918
 20
54.6929
 30
0.0
 11
106.918
 21
40.6922
 31
0.0
  0
LINE
  8
0
 62
0
 10
106.918
 20
40.6922
 30
0.0
 11
92.9185
 21
40.6922
 31
0.0
  0
LINE
  8
0
 62
0
 10
92.9185
 20
40.6922
 30
0.0
 11
92.9185
 21
54.6929
 31
0.0
  0
LINE
  8
0
 62
0
 10
73.8685
 20
54.6929
 30
0.0
 11
87.8678
 21
54.6929
 31
0.0
  0
LINE
  8
0
 62
0
 10
87.8678
 20
54.6929
 30
0.0
 11
87.8678
 21
40.6922
 31
0.0
  0
LINE
  8
0
 62
0
 10
87.8678
 20
40.6922
 30
0.0
 11
73.8685
 21
40.6922
 31
0.0
  0
LINE
  8
0
 62
0
 10
73.8685
 20
40.6922
 30
0.0
 11
73.8685
 21
54.6929
 31
0.0
  0
LINE
  8
0
 62
0
 10
54.8171
 20
54.6929
 30
0.0
 11
68.8178
 21
54.6929
 31
0.0
  0
LINE
  8
0
 62
0
 10
68.8178
 20
54.6929
 30
0.0
 11
68.8178
 21
40.6922
 31
0.0
  0
LINE
  8
0
 62
0
 10
68.8178
 20
40.6922
 30
0.0
 11
54.8171
 21
40.6922
 31
0.0
  0
LINE
  8
0
 62
0
 10
54.8171
 20
40.6922
 30
0.0
 11
54.8171
 21
54.6929
 31
0.0
  0
LINE
  8
0
 62
0
 10
35.7699
 20
54.6929
 30
0.0
 11
49.7692
 21
54.6929
 31
0.0
  0
LINE
  8
0
 62
0
 10
49.7692
 20
54.6929
 30
0.0
 11
49.7692
 21
40.6922
 31
0.0
  0
LINE
  8
0
 62
0
 10
49.7692
 20
40.6922
 30
0.0
 11
35.7699
 21
40.6922
 31
0.0
  0
LINE
  8
0
 62
0
 10
35.7699
 20
40.6922
 30
0.0
 11
35.7699
 21
54.6929
 31
0.0
  0
LINE
  8
0
 62
0
 10
9.57598
 20
54.6929
 30
0.0
 11
23.5755
 21
54.6929
 31
0.0
  0
LINE
  8
0
 62
0
 10
23.5755
 20
54.6929
 30
0.0
 11
23.5755
 21
40.6922
 31
0.0
  0
LINE
  8
0
 62
0
 10
23.5755
 20
40.6922
 30
0.0
 11
9.57598
 21
40.6922
 31
0.0
  0
LINE
  8
0
 62
0
 10
9.57598
 20
40.6922
 30
0.0
 11
9.57598
 21
54.6929
 31
0.0
  0
LINE
  8
0
 62
0
 10
264.368
 20
73.7429
 30
0.0
 11
278.368
 21
73.7429
 31
0.0
  0
LINE
  8
0
 62
0
 10
278.368
 20
73.7429
 30
0.0
 11
278.368
 21
59.7436
 31
0.0
  0
LINE
  8
0
 62
0
 10
278.368
 20
59.7436
 30
0.0
 11
264.368
 21
59.7436
 31
0.0
  0
LINE
  8
0
 62
0
 10
264.368
 20
59.7436
 30
0.0
 11
264.368
 21
73.7429
 31
0.0
  0
LINE
  8
0
 62
0
 10
240.556
 20
73.7429
 30
0.0
 11
254.555
 21
73.7429
 31
0.0
  0
LINE
  8
0
 62
0
 10
254.555
 20
73.7429
 30
0.0
 11
254.555
 21
59.7436
 31
0.0
  0
LINE
  8
0
 62
0
 10
254.555
 20
59.7436
 30
0.0
 11
240.556
 21
59.7436
 31
0.0
  0
LINE
  8
0
 62
0
 10
240.556
 20
59.7436
 30
0.0
 11
240.556
 21
73.7429
 31
0.0
  0
LINE
  8
0
 62
0
 10
221.506
 20
73.7429
 30
0.0
 11
235.507
 21
73.7429
 31
0.0
  0
LINE
  8
0
 62
0
 10
235.507
 20
73.7429
 30
0.0
 11
235.507
 21
59.7436
 31
0.0
  0
LINE
  8
0
 62
0
 10
235.507
 20
59.7436
 30
0.0
 11
221.506
 21
59.7436
 31
0.0
  0
LINE
  8
0
 62
0
 10
221.506
 20
59.7436
 30
0.0
 11
221.506
 21
73.7429
 31
0.0
  0
LINE
  8
0
 62
0
 10
202.456
 20
73.7429
 30
0.0
 11
216.455
 21
73.7429
 31
0.0
  0
LINE
  8
0
 62
0
 10
216.455
 20
73.7429
 30
0.0
 11
216.455
 21
59.7436
 31
0.0
  0
LINE
  8
0
 62
0
 10
216.455
 20
59.7436
 30
0.0
 11
202.456
 21
59.7436
 31
0.0
  0
LINE
  8
0
 62
0
 10
202.456
 20
59.7436
 30
0.0
 11
202.456
 21
73.7429
 31
0.0
  0
LINE
  8
0
 62
0
 10
183.406
 20
73.7429
 30
0.0
 11
197.407
 21
73.7429
 31
0.0
  0
LINE
  8
0
 62
0
 10
197.407
 20
73.7429
 30
0.0
 11
197.407
 21
59.7436
 31
0.0
  0
LINE
  8
0
 62
0
 10
197.407
 20
59.7436
 30
0.0
 11
183.406
 21
59.7436
 31
0.0
  0
LINE
  8
0
 62
0
 10
183.406
 20
59.7436
 30
0.0
 11
183.406
 21
73.7429
 31
0.0
  0
LINE
  8
0
 62
0
 10
164.356
 20
73.7429
 30
0.0
 11
178.357
 21
73.7429
 31
0.0
  0
LINE
  8
0
 62
0
 10
178.357
 20
73.7429
 30
0.0
 11
178.357
 21
59.7436
 31
0.0
  0
LINE
  8
0
 62
0
 10
178.357
 20
59.7436
 30
0.0
 11
164.356
 21
59.7436
 31
0.0
  0
LINE
  8
0
 62
0
 10
164.356
 20
59.7436
 30
0.0
 11
164.356
 21
73.7429
 31
0.0
  0
LINE
  8
0
 62
0
 10
145.306
 20
73.7429
 30
0.0
 11
159.305
 21
73.7429
 31
0.0
  0
LINE
  8
0
 62
0
 10
159.305
 20
73.7429
 30
0.0
 11
159.305
 21
59.7436
 31
0.0
  0
LINE
  8
0
 62
0
 10
159.305
 20
59.7436
 30
0.0
 11
145.306
 21
59.7436
 31
0.0
  0
LINE
  8
0
 62
0
 10
145.306
 20
59.7436
 30
0.0
 11
145.306
 21
73.7429
 31
0.0
  0
LINE
  8
0
 62
0
 10
126.256
 20
73.7429
 30
0.0
 11
140.257
 21
73.7429
 31
0.0
  0
LINE
  8
0
 62
0
 10
140.257
 20
73.7429
 30
0.0
 11
140.257
 21
59.7436
 31
0.0
  0
LINE
  8
0
 62
0
 10
140.257
 20
59.7436
 30
0.0
 11
126.256
 21
59.7436
 31
0.0
  0
LINE
  8
0
 62
0
 10
126.256
 20
59.7436
 30
0.0
 11
126.256
 21
73.7429
 31
0.0
  0
LINE
  8
0
 62
0
 10
107.206
 20
73.7429
 30
0.0
 11
121.205
 21
73.7429
 31
0.0
  0
LINE
  8
0
 62
0
 10
121.205
 20
73.7429
 30
0.0
 11
121.205
 21
59.7436
 31
0.0
  0
LINE
  8
0
 62
0
 10
121.205
 20
59.7436
 30
0.0
 11
107.206
 21
59.7436
 31
0.0
  0
LINE
  8
0
 62
0
 10
107.206
 20
59.7436
 30
0.0
 11
107.206
 21
73.7429
 31
0.0
  0
LINE
  8
0
 62
0
 10
88.156
 20
73.7429
 30
0.0
 11
102.157
 21
73.7429
 31
0.0
  0
LINE
  8
0
 62
0
 10
102.157
 20
73.7429
 30
0.0
 11
102.157
 21
59.7436
 31
0.0
  0
LINE
  8
0
 62
0
 10
102.157
 20
59.7436
 30
0.0
 11
88.156
 21
59.7436
 31
0.0
  0
LINE
  8
0
 62
0
 10
88.156
 20
59.7436
 30
0.0
 11
88.156
 21
73.7429
 31
0.0
  0
LINE
  8
0
 62
0
 10
69.106
 20
73.7429
 30
0.0
 11
83.1067
 21
73.7429
 31
0.0
  0
LINE
  8
0
 62
0
 10
83.1067
 20
73.7429
 30
0.0
 11
83.1067
 21
59.7436
 31
0.0
  0
LINE
  8
0
 62
0
 10
83.1067
 20
59.7436
 30
0.0
 11
69.106
 21
59.7436
 31
0.0
  0
LINE
  8
0
 62
0
 10
69.106
 20
59.7436
 30
0.0
 11
69.106
 21
73.7429
 31
0.0
  0
LINE
  8
0
 62
0
 10
50.056
 20
73.7429
 30
0.0
 11
64.0567
 21
73.7429
 31
0.0
  0
LINE
  8
0
 62
0
 10
64.0567
 20
73.7429
 30
0.0
 11
64.0567
 21
59.7436
 31
0.0
  0
LINE
  8
0
 62
0
 10
64.0567
 20
59.7436
 30
0.0
 11
50.056
 21
59.7436
 31
0.0
  0
LINE
  8
0
 62
0
 10
50.056
 20
59.7436
 30
0.0
 11
50.056
 21
73.7429
 31
0.0
  0
LINE
  8
0
 62
0
 10
31.0059
 20
73.7429
 30
0.0
 11
45.0053
 21
73.7429
 31
0.0
  0
LINE
  8
0
 62
0
 10
45.0053
 20
73.7429
 30
0.0
 11
45.0053
 21
59.7436
 31
0.0
  0
LINE
  8
0
 62
0
 10
45.0053
 20
59.7436
 30
0.0
 11
31.0059
 21
59.7436
 31
0.0
  0
LINE
  8
0
 62
0
 10
31.0059
 20
59.7436
 30
0.0
 11
31.0059
 21
73.7429
 31
0.0
  0
LINE
  8
0
 62
0
 10
7.19473
 20
73.7429
 30
0.0
 11
21.1942
 21
73.7429
 31
0.0
  0
LINE
  8
0
 62
0
 10
21.1942
 20
73.7429
 30
0.0
 11
21.1942
 21
59.7436
 31
0.0
  0
LINE
  8
0
 62
0
 10
21.1942
 20
59.7436
 30
0.0
 11
7.19473
 21
59.7436
 31
0.0
  0
LINE
  8
0
 62
0
 10
7.19473
 20
59.7436
 30
0.0
 11
7.19473
 21
73.7429
 31
0.0
  0
LINE
  8
0
 62
0
 10
269.131
 20
92.7929
 30
0.0
 11
283.13
 21
92.7929
 31
0.0
  0
LINE
  8
0
 62
0
 10
283.13
 20
92.7929
 30
0.0
 11
283.13
 21
78.7936
 31
0.0
  0
LINE
  8
0
 62
0
 10
283.13
 20
78.7936
 30
0.0
 11
269.131
 21
78.7936
 31
0.0
  0
LINE
  8
0
 62
0
 10
269.131
 20
78.7936
 30
0.0
 11
269.131
 21
92.7929
 31
0.0
  0
LINE
  8
0
 62
0
 10
250.081
 20
92.7929
 30
0.0
 11
264.08
 21
92.7929
 31
0.0
  0
LINE
  8
0
 62
0
 10
264.08
 20
92.7929
 30
0.0
 11
264.08
 21
78.7936
 31
0.0
  0
LINE
  8
0
 62
0
 10
264.08
 20
78.7936
 30
0.0
 11
250.081
 21
78.7936
 31
0.0
  0
LINE
  8
0
 62
0
 10
250.081
 20
78.7936
 30
0.0
 11
250.081
 21
92.7929
 31
0.0
  0
LINE
  8
0
 62
0
 10
231.031
 20
92.7929
 30
0.0
 11
245.032
 21
92.7929
 31
0.0
  0
LINE
  8
0
 62
0
 10
245.032
 20
92.7929
 30
0.0
 11
245.032
 21
78.7936
 31
0.0
  0
LINE
  8
0
 62
0
 10
245.032
 20
78.7936
 30
0.0
 11
231.031
 21
78.7936
 31
0.0
  0
LINE
  8
0
 62
0
 10
231.031
 20
78.7936
 30
0.0
 11
231.031
 21
92.7929
 31
0.0
  0
LINE
  8
0
 62
0
 10
211.981
 20
92.7929
 30
0.0
 11
225.982
 21
92.7929
 31
0.0
  0
LINE
  8
0
 62
0
 10
225.982
 20
92.7929
 30
0.0
 11
225.982
 21
78.7936
 31
0.0
  0
LINE
  8
0
 62
0
 10
225.982
 20
78.7936
 30
0.0
 11
211.981
 21
78.7936
 31
0.0
  0
LINE
  8
0
 62
0
 10
211.981
 20
78.7936
 30
0.0
 11
211.981
 21
92.7929
 31
0.0
  0
LINE
  8
0
 62
0
 10
192.931
 20
92.7929
 30
0.0
 11
206.93
 21
92.7929
 31
0.0
  0
LINE
  8
0
 62
0
 10
206.93
 20
92.7929
 30
0.0
 11
206.93
 21
78.7936
 31
0.0
  0
LINE
  8
0
 62
0
 10
206.93
 20
78.7936
 30
0.0
 11
192.931
 21
78.7936
 31
0.0
  0
LINE
  8
0
 62
0
 10
192.931
 20
78.7936
 30
0.0
 11
192.931
 21
92.7929
 31
0.0
  0
LINE
  8
0
 62
0
 10
173.881
 20
92.7929
 30
0.0
 11
187.882
 21
92.7929
 31
0.0
  0
LINE
  8
0
 62
0
 10
187.882
 20
92.7929
 30
0.0
 11
187.882
 21
78.7936
 31
0.0
  0
LINE
  8
0
 62
0
 10
187.882
 20
78.7936
 30
0.0
 11
173.881
 21
78.7936
 31
0.0
  0
LINE
  8
0
 62
0
 10
173.881
 20
78.7936
 30
0.0
 11
173.881
 21
92.7929
 31
0.0
  0
LINE
  8
0
 62
0
 10
154.831
 20
92.7929
 30
0.0
 11
168.83
 21
92.7929
 31
0.0
  0
LINE
  8
0
 62
0
 10
168.83
 20
92.7929
 30
0.0
 11
168.83
 21
78.7936
 31
0.0
  0
LINE
  8
0
 62
0
 10
168.83
 20
78.7936
 30
0.0
 11
154.831
 21
78.7936
 31
0.0
  0
LINE
  8
0
 62
0
 10
154.831
 20
78.7936
 30
0.0
 11
154.831
 21
92.7929
 31
0.0
  0
LINE
  8
0
 62
0
 10
135.781
 20
92.7929
 30
0.0
 11
149.782
 21
92.7929
 31
0.0
  0
LINE
  8
0
 62
0
 10
149.782
 20
92.7929
 30
0.0
 11
149.782
 21
78.7936
 31
0.0
  0
LINE
  8
0
 62
0
 10
149.782
 20
78.7936
 30
0.0
 11
135.781
 21
78.7936
 31
0.0
  0
LINE
  8
0
 62
0
 10
135.781
 20
78.7936
 30
0.0
 11
135.781
 21
92.7929
 31
0.0
  0
LINE
  8
0
 62
0
 10
116.731
 20
92.7929
 30
0.0
 11
130.732
 21
92.7929
 31
0.0
  0
LINE
  8
0
 62
0
 10
130.732
 20
92.7929
 30
0.0
 11
130.732
 21
78.7936
 31
0.0
  0
LINE
  8
0
 62
0
 10
130.732
 20
78.7936
 30
0.0
 11
116.731
 21
78.7936
 31
0.0
  0
LINE
  8
0
 62
0
 10
116.731
 20
78.7936
 30
0.0
 11
116.731
 21
92.7929
 31
0.0
  0
LINE
  8
0
 62
0
 10
97.681
 20
92.7929
 30
0.0
 11
111.682
 21
92.7929
 31
0.0
  0
LINE
  8
0
 62
0
 10
111.682
 20
92.7929
 30
0.0
 11
111.682
 21
78.7936
 31
0.0
  0
LINE
  8
0
 62
0
 10
111.682
 20
78.7936
 30
0.0
 11
97.681
 21
78.7936
 31
0.0
  0
LINE
  8
0
 62
0
 10
97.681
 20
78.7936
 30
0.0
 11
97.681
 21
92.7929
 31
0.0
  0
LINE
  8
0
 62
0
 10
78.631
 20
92.7929
 30
0.0
 11
92.6317
 21
92.7929
 31
0.0
  0
LINE
  8
0
 62
0
 10
92.6317
 20
92.7929
 30
0.0
 11
92.6317
 21
78.7936
 31
0.0
  0
LINE
  8
0
 62
0
 10
92.6317
 20
78.7936
 30
0.0
 11
78.631
 21
78.7936
 31
0.0
  0
LINE
  8
0
 62
0
 10
78.631
 20
78.7936
 30
0.0
 11
78.631
 21
92.7929
 31
0.0
  0
LINE
  8
0
 62
0
 10
59.581
 20
92.7929
 30
0.0
 11
73.5803
 21
92.7929
 31
0.0
  0
LINE
  8
0
 62
0
 10
73.5803
 20
92.7929
 30
0.0
 11
73.5803
 21
78.7936
 31
0.0
  0
LINE
  8
0
 62
0
 10
73.5803
 20
78.7936
 30
0.0
 11
59.581
 21
78.7936
 31
0.0
  0
LINE
  8
0
 62
0
 10
59.581
 20
78.7936
 30
0.0
 11
59.581
 21
92.7929
 31
0.0
  0
LINE
  8
0
 62
0
 10
40.531
 20
92.7929
 30
0.0
 11
54.5317
 21
92.7929
 31
0.0
  0
LINE
  8
0
 62
0
 10
54.5317
 20
92.7929
 30
0.0
 11
54.5317
 21
78.7936
 31
0.0
  0
LINE
  8
0
 62
0
 10
54.5317
 20
78.7936
 30
0.0
 11
40.531
 21
78.7936
 31
0.0
  0
LINE
  8
0
 62
0
 10
40.531
 20
78.7936
 30
0.0
 11
40.531
 21
92.7929
 31
0.0
  0
LINE
  8
0
 62
0
 10
21.4809
 20
92.7929
 30
0.0
 11
35.4817
 21
92.7929
 31
0.0
  0
LINE
  8
0
 62
0
 10
35.4817
 20
92.7929
 30
0.0
 11
35.4817
 21
78.7936
 31
0.0
  0
LINE
  8
0
 62
0
 10
35.4817
 20
78.7936
 30
0.0
 11
21.4809
 21
78.7936
 31
0.0
  0
LINE
  8
0
 62
0
 10
21.4809
 20
78.7936
 30
0.0
 11
21.4809
 21
92.7929
 31
0.0
  0
LINE
  8
0
 62
0
 10
2.43086
 20
92.7929
 30
0.0
 11
16.4317
 21
92.7929
 31
0.0
  0
LINE
  8
0
 62
0
 10
16.4317
 20
92.7929
 30
0.0
 11
16.4317
 21
78.7936
 31
0.0
  0
LINE
  8
0
 62
0
 10
16.4317
 20
78.7936
 30
0.0
 11
2.43086
 21
78.7936
 31
0.0
  0
LINE
  8
0
 62
0
 10
2.43086
 20
78.7936
 30
0.0
 11
2.43086
 21
92.7929
 31
0.0
  0
ENDSEC
  0
EOF
